<svg width="500" height="550" viewBox="0 0 500 550" fill="none" xmlns="http://www.w3.org/2000/svg">
<rect width="500" height="550" fill="white"/>
<path d="M124.409 244L80 256.495L124.134 251.219L167.699 256.495L124.409 244Z" fill="#E60012"/>
<path d="M80.4114 260.379H86.944V273.56L94.9857 260.379H101.508L93.1916 274.257L101.508 288.409H94.9857L86.944 275.354V288.409H80.4114V260.379Z" fill="#08287F"/>
<path d="M102.341 260.242H108.441V288.272H102.32L102.341 260.242Z" fill="#08287F"/>
<path d="M112.336 260.379H120.378L125.243 277.169L130.234 260.379H138.012V288.272H132.736V271.756L127.744 288.145H122.604L117.75 271.481V287.987H112.315L112.336 260.379Z" fill="#08287F"/>
<path d="M142.444 260.379H150.497L155.488 277.454L160.617 260.379H168.121V288.272H162.981V271.481L157.99 288.272H152.861L147.996 271.333V288.145H142.423L142.444 260.379Z" fill="#08287F"/>
<path d="M123.353 305.009L167.699 292.292L123.596 297.791L80 292.767L123.353 305.009Z" fill="#E60012"/>
<path d="M184.141 256.706L191.782 256.738V254.321H196.309V256.738H205.301V260.442H184.099L184.141 256.706Z" fill="#231815"/>
<path d="M200.594 261.392H188.015C183.308 262.532 183.645 267.334 183.645 267.334C183.825 272.135 187.941 272.389 187.941 272.389H200.858C205.66 271.597 205.66 267.334 205.66 267.334C205.723 261.688 200.594 261.392 200.594 261.392ZM200.415 268.568H189.154C189.154 268.568 187.835 268.653 187.751 266.996C187.751 266.996 187.709 265.761 188.891 265.582H200.235C200.235 265.582 201.66 265.698 201.607 267.196C201.607 267.196 201.586 268.231 200.404 268.579L200.415 268.568Z" fill="#231815"/>
<path d="M208.868 255.345H213.385L213.364 261.297H216.92V265.223H213.427V280.937H187.846C187.846 280.937 184.732 281.053 184.648 277.37V273.75H189.186L189.165 276.473C189.165 276.473 189.091 277.454 189.861 277.19H208.889V255.345H208.868Z" fill="#231815"/>
<path d="M220.825 255.292H247.135C247.135 255.292 250.269 255.451 250.491 258.648V268.03H238.048V270.827H247.304C247.304 270.827 250.354 270.901 250.449 274.573V281.212H245.995V276.484C245.995 276.484 246.259 275.46 244.95 275.101H220.593V270.901H233.162V268.02H220.772V264.104H246.006V260.949C246.006 260.949 246.27 259.461 244.961 259.64H220.867L220.836 255.282L220.825 255.292Z" fill="#231815"/>
<path d="M254.701 259.683L254.723 255.282H270.616V267.334C270.616 267.334 269.223 279.818 254.807 279.46V275.65C254.807 275.65 264.389 275.84 266.162 266.975V259.64L254.701 259.683Z" fill="#231815"/>
<path d="M283.365 255.218H278.911V281.475H283.365V255.218Z" fill="#231815"/>
<path d="M305.094 255.366L305.073 259.693H301.643V255.292H287.628L287.66 259.724H297.327V268.019C297.148 274.837 287.723 275.871 287.723 275.871V279.639C298.192 279.533 301.168 272.03 301.168 272.03H305.094V281.464H309.727V255.366H305.094ZM304.925 267.502H301.781V263.386L304.925 263.418V267.502Z" fill="#231815"/>
<path d="M316.45 255.45H311.912V281.475H316.45V255.45Z" fill="#231815"/>
<path d="M347.012 255.186V257.55H340.279C339.319 255.978 335.826 255.365 335.826 255.365H326.845C320.291 256.326 320.819 262.964 320.819 262.964C320.819 269.866 327.014 269.971 327.014 269.971L336.501 269.95C339.931 269.264 340.459 267.692 340.459 267.692H347.097V277.2H328.502C327.372 277.285 327.267 275.881 327.267 275.881V271.618H322.813V276.926C323.088 281.654 326.845 281.295 326.845 281.295H351.466V255.186H347.012ZM335.414 265.761H327.879C327.879 265.761 325.23 265.718 325.177 262.879C325.177 262.879 325.051 259.861 327.573 259.65H335.076C335.076 259.65 337.673 259.566 337.746 262.795C337.746 262.795 337.841 265.412 335.425 265.771L335.414 265.761ZM346.917 263.492H341.693C341.894 262.616 341.641 261.961 341.641 261.961L346.917 261.993V263.492Z" fill="#231815"/>
<path d="M357.397 255.556H382.81C382.81 255.556 385.86 255.978 386.134 259.049V272.22H374.778V281.211H370.24V272.304H357.492V268.03H381.585V261.233C381.585 261.233 381.659 259.914 380.361 259.914L357.397 259.872V255.566V255.556Z" fill="#231815"/>
<path d="M410.66 261.487C410.66 255.63 405.162 255.45 405.162 255.45H394.334C389.099 256.147 389.184 261.561 389.184 261.561C389.184 266.806 394.598 267.333 394.598 267.333H405.689C411.019 266.721 410.671 261.487 410.671 261.487H410.66ZM405.162 262.964H395.474C395.474 262.964 394.165 263.228 393.901 261.487C393.901 261.487 393.722 260.168 395.199 259.904H404.972C404.972 259.904 406.112 260.157 406.196 261.487C406.196 261.487 406.291 262.268 405.151 262.964H405.162Z" fill="#231815"/>
<path d="M412.138 267.112V262.785H415.546V255.545H420V281.306H394.334C394.334 281.306 390.925 281.612 390.661 277.644V274.236H395.031V276.336C395.031 276.336 394.936 277.254 395.991 277.307H415.631V267.101L412.138 267.133V267.112Z" fill="#231815"/>
<path d="M390.577 268.473H411.969V272.336H403.325V275.808H398.692V272.336H390.577V268.473Z" fill="#231815"/>
<path d="M183.793 287.29H184.743V291.29L188.32 287.29H189.692L186.621 290.583L189.745 295.458H188.479L185.914 291.353L184.753 292.609V295.458H183.804V287.29H183.793Z" fill="#231815"/>
<path d="M193.682 294.698C192.785 294.698 192.12 294.382 191.729 293.77C191.328 293.158 191.117 292.398 191.117 291.501C191.117 290.371 191.349 289.517 191.814 288.936C192.289 288.356 192.89 288.071 193.65 288.071C194.41 288.071 195.022 288.366 195.465 288.936C195.909 289.527 196.13 290.287 196.13 291.258C196.13 292.165 195.94 292.957 195.56 293.654C195.18 294.35 194.547 294.709 193.682 294.709V294.698ZM193.608 287.058C192.384 287.058 191.466 287.575 190.843 288.577C190.368 289.348 190.125 290.308 190.125 291.406C190.125 292.619 190.41 293.643 190.97 294.445C191.613 295.279 192.479 295.701 193.587 295.701C194.769 295.701 195.676 295.226 196.32 294.276C196.869 293.453 197.143 292.45 197.143 291.237C197.143 290.118 196.911 289.189 196.426 288.472C195.824 287.543 194.874 287.068 193.608 287.068V287.058Z" fill="#231815"/>
<path d="M199.402 291.015V288.24H201.713C202.04 288.24 202.293 288.282 202.494 288.409C202.853 288.609 203.032 289.01 203.032 289.58C203.032 290.15 202.905 290.509 202.642 290.72C202.388 290.92 202.04 291.015 201.586 291.015H199.402ZM198.41 295.458H199.391V291.955H201.544C201.924 291.955 202.209 291.997 202.399 292.102C202.715 292.292 202.874 292.641 202.905 293.179L202.979 294.551C202.979 294.867 203.011 295.068 203.022 295.184C203.043 295.29 203.064 295.406 203.095 295.458H204.309V295.268C204.151 295.205 204.056 295.036 203.992 294.772C203.95 294.614 203.929 294.392 203.929 294.086L203.897 292.989C203.887 292.503 203.792 292.166 203.655 291.955C203.518 291.744 203.306 291.575 203.022 291.438C203.328 291.258 203.591 290.994 203.771 290.688C203.95 290.372 204.045 289.981 204.045 289.485C204.045 288.546 203.707 287.902 203.043 287.554C202.694 287.364 202.251 287.29 201.713 287.29H198.42V295.458H198.41Z" fill="#231815"/>
<path d="M205.649 287.29H210.873V288.293H206.599V290.773H210.557V291.722H206.599V294.487H210.936V295.458H205.649V287.29Z" fill="#231815"/>
<path d="M213.723 292.102L214.873 288.493L215.992 292.102H213.723ZM211.654 295.458H212.657L213.438 293.01H216.266L217.026 295.458H218.092L215.474 287.29H214.377L211.665 295.458H211.654Z" fill="#231815"/>
<path d="M221.416 287.29H222.408V295.458H221.416V287.29Z" fill="#231815"/>
<path d="M224.002 287.29H225.131L228.74 293.896V287.29H229.658V295.458H228.582L224.92 288.852V295.458H224.002V287.29Z" fill="#231815"/>
<path d="M231.885 292.798C231.906 293.273 232.001 293.643 232.16 293.949C232.476 294.498 233.025 294.761 233.806 294.761C234.154 294.761 234.492 294.698 234.777 294.571C235.336 294.35 235.621 293.938 235.621 293.326C235.621 292.893 235.505 292.566 235.262 292.366C235.02 292.176 234.64 292.018 234.133 291.88L233.183 291.648C232.561 291.479 232.117 291.31 231.864 291.11C231.421 290.772 231.199 290.255 231.199 289.569C231.199 288.841 231.421 288.239 231.853 287.765C232.286 287.3 232.919 287.047 233.711 287.047C234.46 287.047 235.072 287.268 235.6 287.68C236.107 288.102 236.37 288.746 236.37 289.664H235.452C235.399 289.221 235.304 288.894 235.157 288.64C234.872 288.229 234.386 288.007 233.69 288.007C233.141 288.007 232.751 288.144 232.508 288.429C232.276 288.693 232.149 289.02 232.149 289.369C232.149 289.791 232.297 290.076 232.571 290.255C232.761 290.382 233.183 290.53 233.848 290.709L234.83 290.962C235.304 291.099 235.674 291.268 235.938 291.49C236.381 291.87 236.603 292.408 236.603 293.147C236.603 294.054 236.318 294.709 235.748 295.089C235.188 295.479 234.524 295.68 233.774 295.68C232.898 295.68 232.212 295.416 231.716 294.899C231.22 294.382 230.978 293.664 230.988 292.788H231.906L231.885 292.798Z" fill="#231815"/>
<path d="M243.177 287.29V288.272H240.75V295.458H239.768V288.272H237.331V287.29H243.177Z" fill="#231815"/>
<path d="M244.296 287.29H245.267V295.458H244.296V287.29Z" fill="#231815"/>
<path d="M252.105 287.29V288.272H249.668V295.458H248.686V288.272H246.248V287.29H252.105Z" fill="#231815"/>
<path d="M254.058 287.29V292.345C254.058 292.926 254.153 293.422 254.353 293.812C254.649 294.414 255.145 294.709 255.841 294.709C256.675 294.709 257.245 294.392 257.53 293.749C257.688 293.4 257.772 292.926 257.772 292.345V287.29H258.754V291.881C258.754 292.894 258.638 293.664 258.395 294.203C257.952 295.184 257.129 295.691 255.915 295.691C254.701 295.691 253.878 295.184 253.435 294.203C253.192 293.664 253.076 292.894 253.076 291.881V287.29H254.058Z" fill="#231815"/>
<path d="M265.498 287.29V288.272H263.071V295.458H262.079V288.272H259.651V287.29H265.498Z" fill="#231815"/>
<path d="M266.479 287.29H271.703V288.293H267.429V290.773H271.376V291.722H267.429V294.487H271.767V295.458H266.479V287.29Z" fill="#231815"/>
<path d="M279.08 294.698C278.173 294.698 277.518 294.382 277.107 293.77C276.706 293.158 276.505 292.398 276.505 291.501C276.505 290.371 276.737 289.517 277.202 288.936C277.676 288.356 278.278 288.071 279.038 288.071C279.798 288.071 280.42 288.366 280.864 288.936C281.307 289.527 281.518 290.287 281.518 291.258C281.518 292.165 281.328 292.957 280.948 293.654C280.558 294.35 279.945 294.709 279.08 294.709V294.698ZM278.985 287.058C277.761 287.058 276.843 287.575 276.22 288.577C275.735 289.348 275.492 290.308 275.492 291.406C275.492 292.619 275.777 293.643 276.347 294.445C276.969 295.279 277.845 295.701 278.953 295.701C280.135 295.701 281.054 295.226 281.697 294.276C282.236 293.453 282.51 292.45 282.51 291.237C282.51 290.118 282.267 289.189 281.792 288.472C281.18 287.543 280.241 287.068 278.975 287.068L278.985 287.058Z" fill="#231815"/>
<path d="M283.776 287.29H288.768V288.293H284.768V290.773H288.283V291.733H284.768V295.469H283.776V287.301V287.29Z" fill="#231815"/>
<path d="M292.588 287.29H293.971L296.039 294.192L298.087 287.29H299.459V295.458H298.541V290.625C298.541 290.467 298.541 290.192 298.541 289.791C298.541 289.411 298.562 289 298.562 288.556L296.504 295.458H295.543L293.464 288.556V288.81C293.464 289.01 293.464 289.316 293.464 289.728C293.475 290.139 293.496 290.424 293.496 290.625V295.458H292.578V287.29H292.588Z" fill="#231815"/>
<path d="M302.445 292.102L303.596 288.493L304.704 292.102H302.445ZM300.366 295.458H301.369L302.15 293.01H304.978L305.727 295.458H306.804L304.176 287.29H303.078L300.356 295.458H300.366Z" fill="#231815"/>
<path d="M312.809 287.891C313.305 288.44 313.579 289.052 313.643 289.749H312.693C312.587 289.242 312.366 288.809 312.049 288.503C311.732 288.197 311.279 288.05 310.698 288.05C310.002 288.05 309.432 288.324 308.999 288.883C308.556 289.464 308.345 290.308 308.345 291.49C308.345 292.44 308.545 293.21 308.925 293.801C309.326 294.392 309.907 294.688 310.677 294.688C311.384 294.688 311.933 294.371 312.302 293.759C312.503 293.432 312.651 292.999 312.746 292.482H313.695C313.611 293.326 313.337 294.055 312.862 294.624C312.292 295.332 311.532 295.69 310.561 295.69C309.727 295.69 309.02 295.405 308.471 294.814C307.722 294.065 307.353 292.894 307.353 291.3C307.353 290.086 307.638 289.105 308.187 288.324C308.799 287.49 309.632 287.058 310.698 287.058C311.595 287.058 312.292 287.343 312.809 287.891Z" fill="#231815"/>
<path d="M314.951 287.29H315.922V290.678H319.637V287.29H320.618V295.458H319.637V291.638H315.922V295.458H314.951V287.29Z" fill="#231815"/>
<path d="M322.402 287.29H323.383V295.458H322.402V287.29Z" fill="#231815"/>
<path d="M324.998 287.29H326.127L329.726 293.896V287.29H330.644V295.458H329.557L325.895 288.852V295.458H324.988V287.29H324.998Z" fill="#231815"/>
<path d="M332.322 287.29H337.546V288.293H333.272V290.773H337.219V291.722H333.272V294.487H337.609V295.458H332.322V287.29Z" fill="#231815"/>
<path d="M340.026 291.015V288.24H342.348C342.665 288.24 342.918 288.282 343.129 288.409C343.477 288.609 343.667 289.01 343.667 289.58C343.667 290.15 343.53 290.509 343.277 290.72C343.013 290.92 342.675 291.015 342.211 291.015H340.037H340.026ZM339.034 295.458H340.026V291.955H342.169C342.559 291.955 342.844 291.997 343.023 292.102C343.351 292.292 343.509 292.641 343.53 293.179L343.614 294.551C343.614 294.867 343.635 295.068 343.657 295.184C343.667 295.29 343.688 295.406 343.73 295.458H344.944V295.268C344.786 295.205 344.68 295.036 344.617 294.772C344.596 294.614 344.554 294.392 344.543 294.086L344.522 292.989C344.501 292.503 344.427 292.166 344.279 291.955C344.131 291.744 343.92 291.575 343.635 291.438C343.963 291.258 344.205 290.994 344.385 290.688C344.564 290.372 344.649 289.981 344.649 289.485C344.649 288.546 344.321 287.902 343.657 287.554C343.308 287.364 342.865 287.29 342.316 287.29H339.034V295.458Z" fill="#231815"/>
<path d="M345.45 287.29H346.59L348.669 291.205L350.738 287.29H351.888L349.165 292.155V295.458H348.184V292.155L345.45 287.29Z" fill="#231815"/>
<path d="M357.386 290.477C357.133 290.15 356.954 289.886 356.838 289.675C356.732 289.464 356.679 289.242 356.679 289.021C356.679 288.862 356.711 288.704 356.785 288.556C356.922 288.292 357.175 288.155 357.545 288.155C357.787 288.155 357.967 288.25 358.115 288.419C358.262 288.588 358.326 288.799 358.326 289.031C358.326 289.348 358.231 289.622 358.03 289.886C357.914 290.034 357.692 290.245 357.376 290.487L357.386 290.477ZM357.186 294.783C356.859 294.783 356.563 294.667 356.289 294.434C356.004 294.202 355.867 293.865 355.867 293.421C355.867 293.02 355.983 292.683 356.194 292.398C356.331 292.218 356.637 291.944 357.101 291.596L358.727 293.854C358.589 294.086 358.389 294.297 358.125 294.487C357.861 294.677 357.555 294.762 357.207 294.762L357.186 294.783ZM356.605 290.92C356.046 291.311 355.666 291.617 355.466 291.87C355.139 292.271 354.98 292.788 354.98 293.411C354.98 293.981 355.139 294.498 355.487 294.952C355.825 295.405 356.363 295.627 357.112 295.627C357.619 295.627 358.062 295.511 358.452 295.247C358.674 295.099 358.917 294.857 359.191 294.54L359.866 295.458H360.964L359.719 293.717C359.719 293.801 359.803 293.601 359.972 293.136C360.141 292.64 360.257 292.144 360.31 291.627H359.465C359.434 291.88 359.392 292.081 359.36 292.229C359.328 292.376 359.265 292.609 359.181 292.925L357.861 291.131C358.262 290.825 358.558 290.551 358.716 290.319C359.022 289.928 359.17 289.474 359.17 288.936C359.17 288.482 359.033 288.102 358.737 287.775C358.452 287.459 358.062 287.3 357.566 287.3C357.038 287.3 356.616 287.469 356.299 287.817C355.993 288.166 355.835 288.598 355.835 289.126C355.835 289.369 355.888 289.643 355.993 289.918C356.099 290.192 356.299 290.519 356.605 290.92Z" fill="#231815"/>
<path d="M364.774 287.29H366.156L368.214 294.192L370.262 287.29H371.644V295.458H370.715V290.625C370.715 290.467 370.715 290.192 370.715 289.791C370.715 289.411 370.736 289 370.736 288.556L368.668 295.458H367.708L365.629 288.556V288.81C365.629 289.01 365.629 289.316 365.65 289.728C365.65 290.139 365.671 290.424 365.671 290.625V295.458H364.753V287.29H364.774Z" fill="#231815"/>
<path d="M374.631 292.102L375.781 288.493L376.889 292.102H374.631ZM372.562 295.458H373.565L374.346 293.01H377.174L377.924 295.458H379L376.383 287.29H375.285L372.562 295.458Z" fill="#231815"/>
<path d="M384.372 287.29V288.272H381.934V295.458H380.942V288.272H378.514V287.29H384.361H384.372Z" fill="#231815"/>
<path d="M385.364 287.29H390.587V288.293H386.313V290.773H390.26V291.722H386.313V294.487H390.651V295.458H385.374V287.29H385.364Z" fill="#231815"/>
<path d="M393.057 291.015V288.24H395.368C395.695 288.24 395.949 288.282 396.149 288.409C396.508 288.609 396.687 289.01 396.687 289.58C396.687 290.15 396.561 290.509 396.297 290.72C396.044 290.92 395.695 291.015 395.242 291.015H393.057ZM392.076 295.458H393.057V291.955H395.199C395.579 291.955 395.864 291.997 396.054 292.102C396.371 292.292 396.54 292.641 396.561 293.179L396.645 294.551C396.645 294.867 396.666 295.068 396.687 295.184C396.709 295.29 396.73 295.406 396.751 295.458H397.954V295.268C397.806 295.205 397.69 295.036 397.637 294.772C397.595 294.614 397.574 294.392 397.563 294.086L397.532 292.989C397.511 292.503 397.426 292.166 397.289 291.955C397.141 291.744 396.93 291.575 396.656 291.438C396.972 291.258 397.226 290.994 397.405 290.688C397.574 290.372 397.658 289.981 397.658 289.485C397.658 288.546 397.331 287.902 396.666 287.554C396.318 287.364 395.864 287.29 395.326 287.29H392.044V295.458H392.076Z" fill="#231815"/>
<path d="M399.431 287.29H400.413V295.458H399.431V287.29Z" fill="#231815"/>
<path d="M403.473 292.102L404.623 288.493L405.732 292.102H403.473ZM401.394 295.458H402.397L403.178 293.01H406.006L406.755 295.458H407.832L405.214 287.29H404.106L401.384 295.458H401.394Z" fill="#231815"/>
<path d="M408.719 287.29H409.711V294.487H413.309V295.458H408.729V287.29H408.719Z" fill="#231815"/>
<path d="M414.934 292.798C414.934 293.273 415.04 293.643 415.209 293.949C415.515 294.498 416.063 294.761 416.855 294.761C417.203 294.761 417.53 294.698 417.826 294.571C418.385 294.35 418.67 293.938 418.67 293.326C418.67 292.893 418.543 292.566 418.311 292.366C418.058 292.176 417.689 292.018 417.172 291.88L416.222 291.648C415.61 291.479 415.166 291.31 414.903 291.11C414.459 290.772 414.238 290.255 414.238 289.569C414.238 288.841 414.449 288.239 414.881 287.765C415.314 287.3 415.937 287.047 416.749 287.047C417.478 287.047 418.1 287.268 418.617 287.68C419.134 288.102 419.388 288.746 419.388 289.664H418.47C418.417 289.221 418.322 288.894 418.164 288.64C417.889 288.229 417.404 288.007 416.718 288.007C416.148 288.007 415.768 288.144 415.525 288.429C415.282 288.693 415.166 289.02 415.166 289.369C415.166 289.791 415.304 290.076 415.589 290.255C415.778 290.382 416.201 290.53 416.866 290.709L417.847 290.962C418.322 291.099 418.691 291.268 418.945 291.49C419.388 291.87 419.609 292.408 419.609 293.147C419.609 294.054 419.324 294.709 418.765 295.089C418.185 295.479 417.541 295.68 416.781 295.68C415.905 295.68 415.23 295.416 414.723 294.899C414.217 294.382 413.984 293.664 413.995 292.788H414.924L414.934 292.798Z" fill="#231815"/>
</svg>
