<svg width="323" height="58" viewBox="0 0 323 58" fill="none" xmlns="http://www.w3.org/2000/svg">
<path d="M42.08 0L0 11.84L41.82 6.84L83.1 11.84L42.08 0Z" fill="#E60012"/>
<path d="M0.390625 15.52H6.58063V28.01L14.2006 15.52H20.3806L12.5006 28.67L20.3806 42.08H14.2006L6.58063 29.71V42.08H0.390625V15.52Z" fill="#08287F"/>
<path d="M21.1684 15.3901H26.9484V41.9501H21.1484L21.1684 15.3901Z" fill="#08287F"/>
<path d="M30.6411 15.52H38.2611L42.8711 31.43L47.6011 15.52H54.9711V41.95H49.9711V26.3L45.2411 41.83H40.3711L35.7711 26.04V41.68H30.6211L30.6411 15.52Z" fill="#08287F"/>
<path d="M59.1684 15.52H66.7984L71.5284 31.7L76.3884 15.52H83.4984V41.95H78.6284V26.04L73.8984 41.95H69.0384L64.4284 25.9V41.83H59.1484L59.1684 15.52Z" fill="#08287F"/>
<path d="M41.08 57.8098L83.1 45.7598L41.31 50.9698L0 46.2098L41.08 57.8098Z" fill="#E60012"/>
<path d="M98.6767 12.0398L105.917 12.0698V9.77979H110.207V12.0698H118.727V15.5798H98.6367L98.6767 12.0398Z" fill="#231815"/>
<path d="M114.268 16.4797H102.348C97.8882 17.5597 98.2082 22.1097 98.2082 22.1097C98.3782 26.6597 102.278 26.8997 102.278 26.8997H114.518C119.068 26.1497 119.068 22.1097 119.068 22.1097C119.128 16.7597 114.268 16.4797 114.268 16.4797ZM114.098 23.2797H103.428C103.428 23.2797 102.178 23.3597 102.098 21.7897C102.098 21.7897 102.058 20.6197 103.178 20.4497H113.928C113.928 20.4497 115.278 20.5597 115.228 21.9797C115.228 21.9797 115.208 22.9597 114.088 23.2897L114.098 23.2797Z" fill="#231815"/>
<path d="M122.106 10.7498H126.386L126.366 16.3898H129.736V20.1098H126.426V34.9998H102.186C102.186 34.9998 99.2362 35.1098 99.1562 31.6198V28.1898H103.456L103.436 30.7698C103.436 30.7698 103.366 31.6998 104.096 31.4498H122.126V10.7498H122.106Z" fill="#231815"/>
<path d="M133.439 10.6999H158.369C158.369 10.6999 161.339 10.8499 161.549 13.8799V22.7699H149.759V25.4199H158.529C158.529 25.4199 161.419 25.4899 161.509 28.9699V35.2599H157.289V30.7799C157.289 30.7799 157.539 29.8099 156.299 29.4699H133.219V25.4899H145.129V22.7599H133.389V19.0499H157.299V16.0599C157.299 16.0599 157.549 14.6499 156.309 14.8199H133.479L133.449 10.6899L133.439 10.6999Z" fill="#231815"/>
<path d="M165.539 14.8599L165.559 10.6899H180.619V22.1099C180.619 22.1099 179.299 33.9399 165.639 33.5999V29.9899C165.639 29.9899 174.719 30.1699 176.399 21.7699V14.8199L165.539 14.8599Z" fill="#231815"/>
<path d="M192.697 10.6299H188.477V35.5099H192.697V10.6299Z" fill="#231815"/>
<path d="M213.288 10.7697L213.268 14.8697H210.018V10.6997H196.738L196.768 14.8997H205.928V22.7597C205.758 29.2197 196.828 30.1997 196.828 30.1997V33.7697C206.748 33.6697 209.568 26.5597 209.568 26.5597H213.288V35.4997H217.678V10.7697H213.288ZM213.128 22.2697H210.148V18.3697L213.128 18.3997V22.2697Z" fill="#231815"/>
<path d="M224.05 10.8496H219.75V35.5096H224.05V10.8496Z" fill="#231815"/>
<path d="M253.009 10.5996V12.8396H246.629C245.719 11.3496 242.409 10.7696 242.409 10.7696H233.899C227.689 11.6796 228.189 17.9696 228.189 17.9696C228.189 24.5096 234.059 24.6096 234.059 24.6096L243.049 24.5896C246.299 23.9396 246.799 22.4496 246.799 22.4496H253.089V31.4596H235.469C234.399 31.5396 234.299 30.2096 234.299 30.2096V26.1696H230.079V31.1996C230.339 35.6796 233.899 35.3396 233.899 35.3396H257.229V10.5996H253.009ZM242.019 20.6196H234.879C234.879 20.6196 232.369 20.5796 232.319 17.8896C232.319 17.8896 232.199 15.0296 234.589 14.8296H241.699C241.699 14.8296 244.159 14.7496 244.229 17.8096C244.229 17.8096 244.319 20.2896 242.029 20.6296L242.019 20.6196ZM252.919 18.4696H247.969C248.159 17.6396 247.919 17.0196 247.919 17.0196L252.919 17.0496V18.4696Z" fill="#231815"/>
<path d="M262.848 10.9497H286.928C286.928 10.9497 289.818 11.3497 290.078 14.2597V26.7397H279.318V35.2597H275.018V26.8197H262.938V22.7697H285.768V16.3297C285.768 16.3297 285.838 15.0797 284.608 15.0797L262.848 15.0397V10.9597V10.9497Z" fill="#231815"/>
<path d="M313.319 16.5696C313.319 11.0196 308.109 10.8496 308.109 10.8496H297.849C292.889 11.5096 292.969 16.6396 292.969 16.6396C292.969 21.6096 298.099 22.1096 298.099 22.1096H308.609C313.659 21.5296 313.329 16.5696 313.329 16.5696H313.319ZM308.109 17.9696H298.929C298.929 17.9696 297.689 18.2196 297.439 16.5696C297.439 16.5696 297.269 15.3196 298.669 15.0696H307.929C307.929 15.0696 309.009 15.3096 309.089 16.5696C309.089 16.5696 309.179 17.3096 308.099 17.9696H308.109Z" fill="#231815"/>
<path d="M314.717 21.8999V17.7999H317.947V10.9399H322.167V35.3499H297.847C297.847 35.3499 294.617 35.6399 294.367 31.8799V28.6499H298.507V30.6399C298.507 30.6399 298.417 31.5099 299.417 31.5599H318.027V21.8899L314.717 21.9199V21.8999Z" fill="#231815"/>
<path d="M294.289 23.1899H314.559V26.8499H306.369V30.1399H301.979V26.8499H294.289V23.1899Z" fill="#231815"/>
<path d="M98.3477 41.0198H99.2477V44.8098L102.638 41.0198H103.938L101.028 44.1398L103.988 48.7598H102.788L100.358 44.8698L99.2577 46.0598V48.7598H98.3577V41.0198H98.3477Z" fill="#231815"/>
<path d="M107.718 48.0398C106.868 48.0398 106.238 47.7398 105.868 47.1598C105.488 46.5798 105.288 45.8598 105.288 45.0098C105.288 43.9398 105.508 43.1298 105.948 42.5798C106.398 42.0298 106.968 41.7598 107.688 41.7598C108.408 41.7598 108.988 42.0398 109.408 42.5798C109.828 43.1398 110.038 43.8598 110.038 44.7798C110.038 45.6398 109.858 46.3898 109.498 47.0498C109.138 47.7098 108.538 48.0498 107.718 48.0498V48.0398ZM107.648 40.7998C106.488 40.7998 105.618 41.2898 105.028 42.2398C104.578 42.9698 104.348 43.8798 104.348 44.9198C104.348 46.0698 104.618 47.0398 105.148 47.7998C105.758 48.5898 106.578 48.9898 107.628 48.9898C108.748 48.9898 109.608 48.5398 110.218 47.6398C110.738 46.8598 110.998 45.9098 110.998 44.7598C110.998 43.6998 110.778 42.8198 110.318 42.1398C109.748 41.2598 108.848 40.8098 107.648 40.8098V40.7998Z" fill="#231815"/>
<path d="M113.139 44.5498V41.9198H115.329C115.639 41.9198 115.879 41.9598 116.069 42.0798C116.409 42.2698 116.579 42.6498 116.579 43.1898C116.579 43.7298 116.459 44.0698 116.209 44.2698C115.969 44.4598 115.639 44.5498 115.209 44.5498H113.139ZM112.199 48.7598H113.129V45.4398H115.169C115.529 45.4398 115.799 45.4798 115.979 45.5798C116.279 45.7598 116.429 46.0898 116.459 46.5998L116.529 47.8998C116.529 48.1998 116.559 48.3898 116.569 48.4998C116.589 48.5998 116.609 48.7098 116.639 48.7598H117.789V48.5798C117.639 48.5198 117.549 48.3598 117.489 48.1098C117.449 47.9598 117.429 47.7498 117.429 47.4598L117.399 46.4198C117.389 45.9598 117.299 45.6398 117.169 45.4398C117.039 45.2398 116.839 45.0798 116.569 44.9498C116.859 44.7798 117.109 44.5298 117.279 44.2398C117.449 43.9398 117.539 43.5698 117.539 43.0998C117.539 42.2098 117.219 41.5998 116.589 41.2698C116.259 41.0898 115.839 41.0198 115.329 41.0198H112.209V48.7598H112.199Z" fill="#231815"/>
<path d="M119.059 41.0198H124.009V41.9698H119.959V44.3198H123.709V45.2198H119.959V47.8398H124.069V48.7598H119.059V41.0198Z" fill="#231815"/>
<path d="M126.71 45.5798L127.8 42.1598L128.86 45.5798H126.71ZM124.75 48.7598H125.7L126.44 46.4398H129.12L129.84 48.7598H130.85L128.37 41.0198H127.33L124.76 48.7598H124.75Z" fill="#231815"/>
<path d="M134 41.0198H134.94V48.7598H134V41.0198Z" fill="#231815"/>
<path d="M136.449 41.0198H137.519L140.939 47.2798V41.0198H141.809V48.7598H140.789L137.319 42.4998V48.7598H136.449V41.0198Z" fill="#231815"/>
<path d="M143.917 46.2398C143.937 46.6898 144.027 47.0398 144.177 47.3298C144.477 47.8498 144.997 48.0998 145.737 48.0998C146.067 48.0998 146.387 48.0398 146.657 47.9198C147.187 47.7098 147.457 47.3198 147.457 46.7398C147.457 46.3298 147.347 46.0198 147.117 45.8298C146.887 45.6498 146.527 45.4998 146.047 45.3698L145.147 45.1498C144.557 44.9898 144.137 44.8298 143.897 44.6398C143.477 44.3198 143.267 43.8298 143.267 43.1798C143.267 42.4898 143.477 41.9198 143.887 41.4698C144.297 41.0298 144.897 40.7898 145.647 40.7898C146.357 40.7898 146.937 40.9998 147.437 41.3898C147.917 41.7898 148.167 42.3998 148.167 43.2698H147.297C147.247 42.8498 147.157 42.5398 147.017 42.2998C146.747 41.9098 146.287 41.6998 145.627 41.6998C145.107 41.6998 144.737 41.8298 144.507 42.0998C144.287 42.3498 144.167 42.6598 144.167 42.9898C144.167 43.3898 144.307 43.6598 144.567 43.8298C144.747 43.9498 145.147 44.0898 145.777 44.2598L146.707 44.4998C147.157 44.6298 147.507 44.7898 147.757 44.9998C148.177 45.3598 148.387 45.8698 148.387 46.5698C148.387 47.4298 148.117 48.0498 147.577 48.4098C147.047 48.7798 146.417 48.9698 145.707 48.9698C144.877 48.9698 144.227 48.7198 143.757 48.2298C143.287 47.7398 143.057 47.0598 143.067 46.2298H143.937L143.917 46.2398Z" fill="#231815"/>
<path d="M154.618 41.0198V41.9498H152.318V48.7598H151.388V41.9498H149.078V41.0198H154.618Z" fill="#231815"/>
<path d="M155.68 41.0198H156.6V48.7598H155.68V41.0198Z" fill="#231815"/>
<path d="M163.077 41.0198V41.9498H160.767V48.7598H159.837V41.9498H157.527V41.0198H163.077Z" fill="#231815"/>
<path d="M164.93 41.0198V45.8098C164.93 46.3598 165.02 46.8298 165.21 47.1998C165.49 47.7698 165.96 48.0498 166.62 48.0498C167.41 48.0498 167.95 47.7498 168.22 47.1398C168.37 46.8098 168.45 46.3598 168.45 45.8098V41.0198H169.38V45.3698C169.38 46.3298 169.27 47.0598 169.04 47.5698C168.62 48.4998 167.84 48.9798 166.69 48.9798C165.54 48.9798 164.76 48.4998 164.34 47.5698C164.11 47.0598 164 46.3298 164 45.3698V41.0198H164.93Z" fill="#231815"/>
<path d="M175.767 41.0198V41.9498H173.467V48.7598H172.527V41.9498H170.227V41.0198H175.767Z" fill="#231815"/>
<path d="M176.699 41.0198H181.649V41.9698H177.599V44.3198H181.339V45.2198H177.599V47.8398H181.709V48.7598H176.699V41.0198Z" fill="#231815"/>
<path d="M188.638 48.0398C187.778 48.0398 187.158 47.7398 186.768 47.1598C186.388 46.5798 186.198 45.8598 186.198 45.0098C186.198 43.9398 186.418 43.1298 186.858 42.5798C187.308 42.0298 187.878 41.7598 188.598 41.7598C189.318 41.7598 189.908 42.0398 190.328 42.5798C190.748 43.1398 190.948 43.8598 190.948 44.7798C190.948 45.6398 190.768 46.3898 190.408 47.0498C190.038 47.7098 189.458 48.0498 188.638 48.0498V48.0398ZM188.548 40.7998C187.388 40.7998 186.518 41.2898 185.928 42.2398C185.468 42.9698 185.238 43.8798 185.238 44.9198C185.238 46.0698 185.508 47.0398 186.048 47.7998C186.638 48.5898 187.468 48.9898 188.518 48.9898C189.638 48.9898 190.508 48.5398 191.118 47.6398C191.628 46.8598 191.888 45.9098 191.888 44.7598C191.888 43.6998 191.658 42.8198 191.208 42.1398C190.628 41.2598 189.738 40.8098 188.538 40.8098L188.548 40.7998Z" fill="#231815"/>
<path d="M193.09 41.0198H197.82V41.9698H194.03V44.3198H197.36V45.2298H194.03V48.7698H193.09V41.0298V41.0198Z" fill="#231815"/>
<path d="M201.44 41.0198H202.75L204.71 47.5598L206.65 41.0198H207.95V48.7598H207.08V44.1798C207.08 44.0298 207.08 43.7698 207.08 43.3898C207.08 43.0298 207.1 42.6398 207.1 42.2198L205.15 48.7598H204.24L202.27 42.2198V42.4598C202.27 42.6498 202.27 42.9398 202.27 43.3298C202.28 43.7198 202.3 43.9898 202.3 44.1798V48.7598H201.43V41.0198H201.44Z" fill="#231815"/>
<path d="M210.777 45.5798L211.867 42.1598L212.917 45.5798H210.777ZM208.807 48.7598H209.757L210.497 46.4398H213.177L213.887 48.7598H214.907L212.417 41.0198H211.377L208.797 48.7598H208.807Z" fill="#231815"/>
<path d="M220.6 41.5898C221.07 42.1098 221.33 42.6898 221.39 43.3498H220.49C220.39 42.8698 220.18 42.4598 219.88 42.1698C219.58 41.8798 219.15 41.7398 218.6 41.7398C217.94 41.7398 217.4 41.9998 216.99 42.5298C216.57 43.0798 216.37 43.8798 216.37 44.9998C216.37 45.8998 216.56 46.6298 216.92 47.1898C217.3 47.7498 217.85 48.0298 218.58 48.0298C219.25 48.0298 219.77 47.7298 220.12 47.1498C220.31 46.8398 220.45 46.4298 220.54 45.9398H221.44C221.36 46.7398 221.1 47.4298 220.65 47.9698C220.11 48.6398 219.39 48.9798 218.47 48.9798C217.68 48.9798 217.01 48.7098 216.49 48.1498C215.78 47.4398 215.43 46.3298 215.43 44.8198C215.43 43.6698 215.7 42.7398 216.22 41.9998C216.8 41.2098 217.59 40.7998 218.6 40.7998C219.45 40.7998 220.11 41.0698 220.6 41.5898Z" fill="#231815"/>
<path d="M222.629 41.0198H223.549V44.2298H227.069V41.0198H227.999V48.7598H227.069V45.1398H223.549V48.7598H222.629V41.0198Z" fill="#231815"/>
<path d="M229.688 41.0198H230.617V48.7598H229.688V41.0198Z" fill="#231815"/>
<path d="M232.147 41.0198H233.217L236.627 47.2798V41.0198H237.497V48.7598H236.467L232.997 42.4998V48.7598H232.137V41.0198H232.147Z" fill="#231815"/>
<path d="M239.09 41.0198H244.04V41.9698H239.99V44.3198H243.73V45.2198H239.99V47.8398H244.1V48.7598H239.09V41.0198Z" fill="#231815"/>
<path d="M246.389 44.5498V41.9198H248.589C248.889 41.9198 249.129 41.9598 249.329 42.0798C249.659 42.2698 249.839 42.6498 249.839 43.1898C249.839 43.7298 249.709 44.0698 249.469 44.2698C249.219 44.4598 248.899 44.5498 248.459 44.5498H246.399H246.389ZM245.449 48.7598H246.389V45.4398H248.419C248.789 45.4398 249.059 45.4798 249.229 45.5798C249.539 45.7598 249.689 46.0898 249.709 46.5998L249.789 47.8998C249.789 48.1998 249.809 48.3898 249.829 48.4998C249.839 48.5998 249.859 48.7098 249.899 48.7598H251.049V48.5798C250.899 48.5198 250.799 48.3598 250.739 48.1098C250.719 47.9598 250.679 47.7498 250.669 47.4598L250.649 46.4198C250.629 45.9598 250.559 45.6398 250.419 45.4398C250.279 45.2398 250.079 45.0798 249.809 44.9498C250.119 44.7798 250.349 44.5298 250.519 44.2398C250.689 43.9398 250.769 43.5698 250.769 43.0998C250.769 42.2098 250.459 41.5998 249.829 41.2698C249.499 41.0898 249.079 41.0198 248.559 41.0198H245.449V48.7598Z" fill="#231815"/>
<path d="M251.527 41.0198H252.607L254.577 44.7298L256.537 41.0198H257.627L255.047 45.6298V48.7598H254.117V45.6298L251.527 41.0198Z" fill="#231815"/>
<path d="M262.839 44.0398C262.599 43.7298 262.429 43.4798 262.319 43.2798C262.219 43.0798 262.169 42.8698 262.169 42.6598C262.169 42.5098 262.199 42.3598 262.269 42.2198C262.399 41.9698 262.639 41.8398 262.989 41.8398C263.219 41.8398 263.389 41.9298 263.529 42.0898C263.669 42.2498 263.729 42.4498 263.729 42.6698C263.729 42.9698 263.639 43.2298 263.449 43.4798C263.339 43.6198 263.129 43.8198 262.829 44.0498L262.839 44.0398ZM262.649 48.1198C262.339 48.1198 262.059 48.0098 261.799 47.7898C261.529 47.5698 261.399 47.2498 261.399 46.8298C261.399 46.4498 261.509 46.1298 261.709 45.8598C261.839 45.6898 262.129 45.4298 262.569 45.0998L264.109 47.2398C263.979 47.4598 263.789 47.6598 263.539 47.8398C263.289 48.0198 262.999 48.0998 262.669 48.0998L262.649 48.1198ZM262.099 44.4598C261.569 44.8298 261.209 45.1198 261.019 45.3598C260.709 45.7398 260.559 46.2298 260.559 46.8198C260.559 47.3598 260.709 47.8498 261.039 48.2798C261.359 48.7098 261.869 48.9198 262.579 48.9198C263.059 48.9198 263.479 48.8098 263.849 48.5598C264.059 48.4198 264.289 48.1898 264.549 47.8898L265.189 48.7598H266.229L265.049 47.1098C265.049 47.1898 265.129 46.9998 265.289 46.5598C265.449 46.0898 265.559 45.6198 265.609 45.1298H264.809C264.779 45.3698 264.739 45.5598 264.709 45.6998C264.679 45.8398 264.619 46.0598 264.539 46.3598L263.289 44.6598C263.669 44.3698 263.949 44.1098 264.099 43.8898C264.389 43.5198 264.529 43.0898 264.529 42.5798C264.529 42.1498 264.399 41.7898 264.119 41.4798C263.849 41.1798 263.479 41.0298 263.009 41.0298C262.509 41.0298 262.109 41.1898 261.809 41.5198C261.519 41.8498 261.369 42.2598 261.369 42.7598C261.369 42.9898 261.419 43.2498 261.519 43.5098C261.619 43.7698 261.809 44.0798 262.099 44.4598Z" fill="#231815"/>
<path d="M269.836 41.0198H271.146L273.096 47.5598L275.036 41.0198H276.346V48.7598H275.466V44.1798C275.466 44.0298 275.466 43.7698 275.466 43.3898C275.466 43.0298 275.486 42.6398 275.486 42.2198L273.526 48.7598H272.616L270.646 42.2198V42.4598C270.646 42.6498 270.646 42.9398 270.666 43.3298C270.666 43.7198 270.686 43.9898 270.686 44.1798V48.7598H269.816V41.0198H269.836Z" fill="#231815"/>
<path d="M279.179 45.5798L280.269 42.1598L281.319 45.5798H279.179ZM277.219 48.7598H278.169L278.909 46.4398H281.589L282.299 48.7598H283.319L280.839 41.0198H279.799L277.219 48.7598Z" fill="#231815"/>
<path d="M288.409 41.0198V41.9498H286.099V48.7598H285.159V41.9498H282.859V41.0198H288.399H288.409Z" fill="#231815"/>
<path d="M289.348 41.0198H294.298V41.9698H290.248V44.3198H293.988V45.2198H290.248V47.8398H294.358V48.7598H289.358V41.0198H289.348Z" fill="#231815"/>
<path d="M296.64 44.5498V41.9198H298.83C299.14 41.9198 299.38 41.9598 299.57 42.0798C299.91 42.2698 300.08 42.6498 300.08 43.1898C300.08 43.7298 299.96 44.0698 299.71 44.2698C299.47 44.4598 299.14 44.5498 298.71 44.5498H296.64ZM295.71 48.7598H296.64V45.4398H298.67C299.03 45.4398 299.3 45.4798 299.48 45.5798C299.78 45.7598 299.94 46.0898 299.96 46.5998L300.04 47.8998C300.04 48.1998 300.06 48.3898 300.08 48.4998C300.1 48.5998 300.12 48.7098 300.14 48.7598H301.28V48.5798C301.14 48.5198 301.03 48.3598 300.98 48.1098C300.94 47.9598 300.92 47.7498 300.91 47.4598L300.88 46.4198C300.86 45.9598 300.78 45.6398 300.65 45.4398C300.51 45.2398 300.31 45.0798 300.05 44.9498C300.35 44.7798 300.59 44.5298 300.76 44.2398C300.92 43.9398 301 43.5698 301 43.0998C301 42.2098 300.69 41.5998 300.06 41.2698C299.73 41.0898 299.3 41.0198 298.79 41.0198H295.68V48.7598H295.71Z" fill="#231815"/>
<path d="M302.68 41.0198H303.61V48.7598H302.68V41.0198Z" fill="#231815"/>
<path d="M306.507 45.5798L307.597 42.1598L308.647 45.5798H306.507ZM304.537 48.7598H305.487L306.227 46.4398H308.907L309.617 48.7598H310.637L308.157 41.0198H307.107L304.527 48.7598H304.537Z" fill="#231815"/>
<path d="M311.477 41.0198H312.417V47.8398H315.827V48.7598H311.487V41.0198H311.477Z" fill="#231815"/>
<path d="M317.367 46.2398C317.367 46.6898 317.467 47.0398 317.627 47.3298C317.917 47.8498 318.437 48.0998 319.187 48.0998C319.517 48.0998 319.827 48.0398 320.107 47.9198C320.637 47.7098 320.907 47.3198 320.907 46.7398C320.907 46.3298 320.787 46.0198 320.567 45.8298C320.327 45.6498 319.977 45.4998 319.487 45.3698L318.587 45.1498C318.007 44.9898 317.587 44.8298 317.337 44.6398C316.917 44.3198 316.707 43.8298 316.707 43.1798C316.707 42.4898 316.907 41.9198 317.317 41.4698C317.727 41.0298 318.317 40.7898 319.087 40.7898C319.777 40.7898 320.367 40.9998 320.857 41.3898C321.347 41.7898 321.587 42.3998 321.587 43.2698H320.717C320.667 42.8498 320.577 42.5398 320.427 42.2998C320.167 41.9098 319.707 41.6998 319.057 41.6998C318.517 41.6998 318.157 41.8298 317.927 42.0998C317.697 42.3498 317.587 42.6598 317.587 42.9898C317.587 43.3898 317.717 43.6598 317.987 43.8298C318.167 43.9498 318.567 44.0898 319.197 44.2598L320.127 44.4998C320.577 44.6298 320.927 44.7898 321.167 44.9998C321.587 45.3598 321.797 45.8698 321.797 46.5698C321.797 47.4298 321.527 48.0498 320.997 48.4098C320.447 48.7798 319.837 48.9698 319.117 48.9698C318.287 48.9698 317.647 48.7198 317.167 48.2298C316.687 47.7398 316.467 47.0598 316.477 46.2298H317.357L317.367 46.2398Z" fill="#231815"/>
</svg>
