<svg width="1030" height="72" viewBox="0 0 1030 72" fill="none" xmlns="http://www.w3.org/2000/svg">
<path d="M181.638 0L129 14.7463L181.313 8.51898L232.95 14.7463L181.638 0Z" fill="#E60012"/>
<path d="M129.488 19.3296H137.231V34.8854L146.763 19.3296H154.494L144.637 35.7074L154.494 52.4091H146.763L137.231 37.0027V52.4091H129.488V19.3296Z" fill="#08287F"/>
<path d="M155.478 19.168H162.708V52.2475H155.453L155.478 19.168Z" fill="#08287F"/>
<path d="M167.33 19.3296H176.862L182.628 39.1449L188.545 19.3296H197.764V52.2472H191.51V32.7557L185.593 52.0978H179.501L173.747 32.4319V51.9109H167.305L167.33 19.3296Z" fill="#08287F"/>
<path d="M203.013 19.3296H212.558L218.474 39.4812L224.554 19.3296H233.448V52.2472H227.356V32.4319L221.439 52.2472H215.36L209.593 32.2575V52.0978H202.988L203.013 19.3296Z" fill="#08287F"/>
<path d="M180.387 72L232.95 56.9922L180.675 63.4811L129 57.5526L180.387 72Z" fill="#E60012"/>
<path d="M252.437 14.9952L261.493 15.0325V12.1804H266.86V15.0325H277.517V19.4041H252.387L252.437 14.9952Z" fill="#231815"/>
<path d="M271.94 20.5251H257.029C251.45 21.8702 251.85 27.5371 251.85 27.5371C252.063 33.204 256.941 33.5029 256.941 33.5029H272.252C277.944 32.5688 277.944 27.5371 277.944 27.5371C278.019 20.8739 271.94 20.5251 271.94 20.5251ZM271.727 28.9943H258.38C258.38 28.9943 256.816 29.0939 256.716 27.1386C256.716 27.1386 256.666 25.6814 258.067 25.4696H271.514C271.514 25.4696 273.203 25.6066 273.14 27.3752C273.14 27.3752 273.115 28.5958 271.714 29.0068L271.727 28.9943Z" fill="#231815"/>
<path d="M281.743 13.3884H287.097L287.072 20.4128H291.288V25.046H287.147V43.5909H256.825C256.825 43.5909 253.135 43.7279 253.035 39.3813V35.1093H258.414L258.389 38.3226C258.389 38.3226 258.301 39.4809 259.215 39.1695H281.768V13.3884H281.743Z" fill="#231815"/>
<path d="M295.92 13.3262H327.105C327.105 13.3262 330.82 13.513 331.083 17.2868V28.3589H316.334V31.6594H327.305C327.305 31.6594 330.92 31.7466 331.033 36.0808V43.9148H325.754V38.3351C325.754 38.3351 326.067 37.127 324.515 36.7035H295.645V31.7466H310.543V28.3465H295.857V23.7258H325.766V20.0019C325.766 20.0019 326.079 18.2458 324.528 18.4575H295.97L295.932 13.3137L295.92 13.3262Z" fill="#231815"/>
<path d="M336.074 18.5073L336.099 13.3137H354.938V27.5369C354.938 27.5369 353.287 42.2708 336.199 41.8473V37.3512C336.199 37.3512 347.558 37.5754 349.659 27.1135V18.4575L336.074 18.5073Z" fill="#231815"/>
<path d="M370.044 13.239H364.766V44.2262H370.044V13.239Z" fill="#231815"/>
<path d="M395.804 13.4134L395.779 18.5198H391.714V13.3262H375.102L375.139 18.5571H386.597V28.3465C386.385 36.3922 375.214 37.6127 375.214 37.6127V42.059C387.623 41.9345 391.151 33.0792 391.151 33.0792H395.804V44.2137H401.295V13.4134H395.804ZM395.604 27.7362H391.876V22.8789L395.604 22.9162V27.7362Z" fill="#231815"/>
<path d="M409.266 13.5129H403.887V44.2261H409.266V13.5129Z" fill="#231815"/>
<path d="M445.493 13.2017V15.9915H437.512C436.374 14.1358 432.233 13.4134 432.233 13.4134H421.588C413.82 14.5468 414.446 22.3807 414.446 22.3807C414.446 30.5261 421.788 30.6506 421.788 30.6506L433.034 30.6257C437.099 29.8162 437.725 27.9604 437.725 27.9604H445.593V39.182H423.552C422.214 39.2817 422.089 37.6252 422.089 37.6252V32.5935H416.81V38.8582C417.135 44.4379 421.588 44.0144 421.588 44.0144H450.772V13.2017H445.493ZM431.746 25.6812H422.814C422.814 25.6812 419.674 25.6314 419.612 22.2811C419.612 22.2811 419.462 18.7191 422.451 18.47H431.345C431.345 18.47 434.423 18.3703 434.51 22.1815C434.51 22.1815 434.623 25.2702 431.758 25.6937L431.746 25.6812ZM445.38 23.0035H439.188C439.426 21.9697 439.126 21.1975 439.126 21.1975L445.38 21.2349V23.0035Z" fill="#231815"/>
<path d="M457.797 13.6377H487.919C487.919 13.6377 491.534 14.1359 491.859 17.7602V33.3036H478.399V43.9149H473.02V33.4032H457.909V28.3591H486.468V20.3383C486.468 20.3383 486.555 18.7815 485.016 18.7815L457.797 18.7316V13.6502V13.6377Z" fill="#231815"/>
<path d="M520.933 20.637C520.933 13.7247 514.415 13.5129 514.415 13.5129H501.581C495.377 14.3349 495.477 20.7242 495.477 20.7242C495.477 26.9141 501.894 27.5369 501.894 27.5369H515.041C521.358 26.8145 520.945 20.637 520.945 20.637H520.933ZM514.415 22.3806H502.932C502.932 22.3806 501.381 22.692 501.068 20.637C501.068 20.637 500.856 19.0802 502.607 18.7688H514.19C514.19 18.7688 515.541 19.0677 515.641 20.637C515.641 20.637 515.754 21.5586 514.403 22.3806H514.415Z" fill="#231815"/>
<path d="M522.682 27.2755V22.1691H526.723V13.6252H532.002V44.027H501.58C501.58 44.027 497.539 44.3882 497.227 39.7053V35.6824H502.405V38.1609C502.405 38.1609 502.293 39.2444 503.544 39.3067H526.823V27.2631L522.682 27.3004V27.2755Z" fill="#231815"/>
<path d="M497.129 28.8821H522.485V33.4405H512.24V37.5381H506.748V33.4405H497.129V28.8821Z" fill="#231815"/>
<path d="M252.023 51.0886H253.149V55.8089L257.39 51.0886H259.016L255.376 54.9745L259.079 60.7285H257.577L254.538 55.8837L253.162 57.3658V60.7285H252.036V51.0886H252.023Z" fill="#231815"/>
<path d="M263.747 59.8319C262.684 59.8319 261.895 59.4582 261.433 58.7359C260.957 58.0135 260.707 57.1167 260.707 56.0581C260.707 54.7255 260.982 53.7166 261.533 53.0316C262.096 52.3466 262.809 52.0103 263.709 52.0103C264.61 52.0103 265.335 52.3591 265.861 53.0316C266.386 53.7291 266.649 54.6258 266.649 55.7716C266.649 56.8427 266.424 57.7768 265.973 58.5988C265.523 59.4209 264.773 59.8443 263.747 59.8443V59.8319ZM263.659 50.8147C262.208 50.8147 261.12 51.425 260.382 52.6082C259.819 53.5174 259.531 54.6507 259.531 55.946C259.531 57.3783 259.869 58.5864 260.532 59.5329C261.295 60.5169 262.321 61.0151 263.634 61.0151C265.035 61.0151 266.111 60.4546 266.874 59.3337C267.525 58.3622 267.85 57.179 267.85 55.7467C267.85 54.4265 267.575 53.3305 266.999 52.4836C266.286 51.3876 265.16 50.8272 263.659 50.8272V50.8147Z" fill="#231815"/>
<path d="M270.527 55.4851V52.2095H273.267C273.655 52.2095 273.955 52.2594 274.193 52.4088C274.618 52.6455 274.831 53.1187 274.831 53.7913C274.831 54.4638 274.68 54.8873 274.368 55.1364C274.067 55.373 273.655 55.4851 273.117 55.4851H270.527ZM269.352 60.7285H270.515V56.5936H273.067C273.517 56.5936 273.855 56.6434 274.08 56.7679C274.455 56.9921 274.643 57.4031 274.68 58.0383L274.768 59.6574C274.768 60.0311 274.806 60.2677 274.818 60.4047C274.843 60.5292 274.868 60.6662 274.906 60.7285H276.344V60.5043C276.156 60.4296 276.044 60.2303 275.969 59.919C275.919 59.7321 275.894 59.4706 275.894 59.1094L275.856 57.8141C275.844 57.2412 275.731 56.8427 275.569 56.5936C275.406 56.3445 275.156 56.1452 274.818 55.9833C275.181 55.7716 275.493 55.4602 275.706 55.099C275.919 54.7254 276.031 54.2646 276.031 53.6792C276.031 52.5707 275.631 51.811 274.843 51.4C274.43 51.1758 273.905 51.0886 273.267 51.0886H269.364V60.7285H269.352Z" fill="#231815"/>
<path d="M277.934 51.0886H284.126V52.2718H279.059V55.1987H283.75V56.3196H279.059V59.5827H284.201V60.7285H277.934V51.0886Z" fill="#231815"/>
<path d="M287.503 56.7679L288.866 52.5085L290.192 56.7679H287.503ZM285.051 60.7285H286.239L287.165 57.839H290.517L291.418 60.7285H292.681L289.579 51.0886H288.278L285.063 60.7285H285.051Z" fill="#231815"/>
<path d="M296.621 51.0886H297.797V60.7285H296.621V51.0886Z" fill="#231815"/>
<path d="M299.688 51.0886H301.026L305.304 58.8852V51.0886H306.392V60.7285H305.116L300.776 52.9319V60.7285H299.688V51.0886Z" fill="#231815"/>
<path d="M309.028 57.59C309.054 58.1505 309.166 58.5864 309.354 58.9476C309.729 59.5952 310.379 59.9066 311.305 59.9066C311.718 59.9066 312.118 59.8319 312.456 59.6824C313.119 59.4209 313.457 58.9351 313.457 58.2128C313.457 57.7021 313.319 57.316 313.031 57.0794C312.744 56.8552 312.293 56.6684 311.693 56.5065L310.567 56.2325C309.829 56.0332 309.304 55.8339 309.003 55.5973C308.478 55.1987 308.215 54.5885 308.215 53.7789C308.215 52.9195 308.478 52.2096 308.991 51.6492C309.504 51.1012 310.254 50.8022 311.193 50.8022C312.081 50.8022 312.806 51.0638 313.432 51.5495C314.032 52.0477 314.345 52.8074 314.345 53.891H313.257C313.194 53.3679 313.081 52.9818 312.906 52.6829C312.569 52.1972 311.993 51.9356 311.168 51.9356C310.517 51.9356 310.054 52.0975 309.767 52.4338C309.491 52.7452 309.341 53.1313 309.341 53.5423C309.341 54.0405 309.516 54.3767 309.842 54.5885C310.067 54.7379 310.567 54.9123 311.355 55.124L312.519 55.4229C313.081 55.5848 313.519 55.7841 313.832 56.0456C314.357 56.494 314.62 57.1292 314.62 58.001C314.62 59.0721 314.282 59.8443 313.607 60.2927C312.944 60.7535 312.156 60.9901 311.268 60.9901C310.229 60.9901 309.416 60.6788 308.828 60.0685C308.24 59.4582 307.953 58.6113 307.965 57.5776H309.054L309.028 57.59Z" fill="#231815"/>
<path d="M322.414 51.0886V52.2469H319.537V60.7285H318.374V52.2469H315.484V51.0886H322.414Z" fill="#231815"/>
<path d="M323.742 51.0886H324.893V60.7285H323.742V51.0886Z" fill="#231815"/>
<path d="M332.993 51.0886V52.2469H330.104V60.7285H328.94V52.2469H326.051V51.0886H332.993Z" fill="#231815"/>
<path d="M335.312 51.0886V57.0544C335.312 57.7394 335.424 58.3248 335.662 58.7856C336.012 59.4955 336.6 59.8442 337.426 59.8442C338.414 59.8442 339.09 59.4706 339.427 58.7109C339.615 58.2999 339.715 57.7394 339.715 57.0544V51.0886H340.878V56.5064C340.878 57.702 340.741 58.6112 340.453 59.2464C339.928 60.4047 338.952 61.0025 337.513 61.0025C336.075 61.0025 335.099 60.4047 334.574 59.2464C334.286 58.6112 334.148 57.702 334.148 56.5064V51.0886H335.312Z" fill="#231815"/>
<path d="M348.868 51.0886V52.2469H345.99V60.7285H344.815V52.2469H341.938V51.0886H348.868Z" fill="#231815"/>
<path d="M350.035 51.0886H356.227V52.2718H351.161V55.1987H355.839V56.3196H351.161V59.5827H356.302V60.7285H350.035V51.0886Z" fill="#231815"/>
<path d="M364.968 59.8319C363.892 59.8319 363.117 59.4582 362.629 58.7359C362.153 58.0135 361.916 57.1167 361.916 56.0581C361.916 54.7255 362.191 53.7166 362.741 53.0316C363.304 52.3466 364.017 52.0103 364.918 52.0103C365.819 52.0103 366.557 52.3591 367.082 53.0316C367.607 53.7291 367.857 54.6258 367.857 55.7716C367.857 56.8427 367.632 57.7768 367.182 58.5988C366.719 59.4209 365.994 59.8443 364.968 59.8443V59.8319ZM364.855 50.8147C363.404 50.8147 362.316 51.425 361.578 52.6082C361.003 53.5174 360.715 54.6507 360.715 55.946C360.715 57.3783 361.053 58.5864 361.728 59.5329C362.466 60.5169 363.504 61.0151 364.818 61.0151C366.219 61.0151 367.307 60.4546 368.07 59.3337C368.708 58.3622 369.033 57.179 369.033 55.7467C369.033 54.4265 368.746 53.3305 368.183 52.4836C367.457 51.3876 366.344 50.8272 364.843 50.8272L364.855 50.8147Z" fill="#231815"/>
<path d="M370.539 51.0886H376.456V52.2718H371.715V55.1987H375.88V56.332H371.715V60.741H370.539V51.1011V51.0886Z" fill="#231815"/>
<path d="M380.981 51.0886H382.62L385.072 59.234L387.498 51.0886H389.125V60.7285H388.036V55.0243C388.036 54.8375 388.036 54.5136 388.036 54.0404C388.036 53.592 388.061 53.1063 388.061 52.5832L385.622 60.7285H384.484L382.02 52.5832V52.8821C382.02 53.1187 382.02 53.4799 382.02 53.9656C382.032 54.4514 382.057 54.7877 382.057 55.0243V60.7285H380.969V51.0886H380.981Z" fill="#231815"/>
<path d="M392.664 56.7679L394.028 52.5085L395.341 56.7679H392.664ZM390.2 60.7285H391.388L392.314 57.839H395.666L396.555 60.7285H397.831L394.716 51.0886H393.415L390.188 60.7285H390.2Z" fill="#231815"/>
<path d="M404.952 51.7986C405.539 52.4463 405.865 53.1686 405.94 53.9906H404.814C404.689 53.3928 404.426 52.8822 404.051 52.521C403.676 52.1598 403.138 51.9854 402.45 51.9854C401.624 51.9854 400.949 52.3093 400.436 52.9694C399.91 53.6544 399.66 54.6507 399.66 56.0456C399.66 57.1666 399.898 58.0758 400.348 58.7732C400.824 59.4707 401.512 59.8194 402.425 59.8194C403.263 59.8194 403.913 59.4458 404.351 58.7234C404.589 58.3373 404.764 57.8267 404.876 57.2164H406.002C405.902 58.2128 405.577 59.0721 405.014 59.7447C404.339 60.5791 403.438 61.0026 402.287 61.0026C401.299 61.0026 400.461 60.6663 399.81 59.9689C398.922 59.0846 398.484 57.7021 398.484 55.8215C398.484 54.3892 398.822 53.2309 399.473 52.3093C400.198 51.3253 401.186 50.8147 402.45 50.8147C403.513 50.8147 404.339 51.151 404.952 51.7986Z" fill="#231815"/>
<path d="M407.488 51.0886H408.639V55.0866H413.042V51.0886H414.206V60.7285H413.042V56.2199H408.639V60.7285H407.488V51.0886Z" fill="#231815"/>
<path d="M416.316 51.0886H417.48V60.7285H416.316V51.0886Z" fill="#231815"/>
<path d="M419.395 51.0886H420.734L424.999 58.8852V51.0886H426.088V60.7285H424.799L420.459 52.9319V60.7285H419.383V51.0886H419.395Z" fill="#231815"/>
<path d="M428.078 51.0886H434.27V52.2718H429.204V55.1987H433.882V56.3196H429.204V59.5827H434.345V60.7285H428.078V51.0886Z" fill="#231815"/>
<path d="M437.211 55.4851V52.2095H439.963C440.338 52.2095 440.638 52.2594 440.889 52.4088C441.301 52.6455 441.527 53.1187 441.527 53.7913C441.527 54.4638 441.364 54.8873 441.064 55.1364C440.751 55.373 440.351 55.4851 439.8 55.4851H437.224H437.211ZM436.035 60.7285H437.211V56.5936H439.75C440.213 56.5936 440.551 56.6434 440.764 56.7679C441.151 56.9921 441.339 57.4031 441.364 58.0383L441.464 59.6574C441.464 60.0311 441.489 60.2677 441.514 60.4047C441.527 60.5292 441.552 60.6662 441.602 60.7285H443.04V60.5043C442.853 60.4296 442.727 60.2303 442.652 59.919C442.627 59.7321 442.577 59.4706 442.565 59.1094L442.54 57.8141C442.515 57.2412 442.427 56.8427 442.252 56.5936C442.077 56.3445 441.827 56.1452 441.489 55.9833C441.877 55.7716 442.165 55.4602 442.377 55.099C442.59 54.7254 442.69 54.2646 442.69 53.6792C442.69 52.5707 442.302 51.811 441.514 51.4C441.101 51.1758 440.576 51.0886 439.925 51.0886H436.035V60.7285Z" fill="#231815"/>
<path d="M443.637 51.0886H444.988L447.452 55.7093L449.904 51.0886H451.267L448.04 56.8302V60.7285H446.877V56.8302L443.637 51.0886Z" fill="#231815"/>
<path d="M457.786 54.8499C457.485 54.4638 457.273 54.1525 457.135 53.9034C457.01 53.6543 456.948 53.3927 456.948 53.1312C456.948 52.9444 456.985 52.7575 457.073 52.5832C457.235 52.2718 457.535 52.1099 457.973 52.1099C458.261 52.1099 458.474 52.222 458.649 52.4213C458.824 52.6205 458.899 52.8696 458.899 53.1436C458.899 53.5173 458.786 53.8411 458.549 54.1525C458.411 54.3268 458.148 54.5759 457.773 54.8624L457.786 54.8499ZM457.548 59.9314C457.16 59.9314 456.81 59.7944 456.485 59.5204C456.147 59.2464 455.984 58.8479 455.984 58.3248C455.984 57.8515 456.122 57.4529 456.372 57.1167C456.535 56.9049 456.898 56.5811 457.448 56.1701L459.374 58.8354C459.212 59.1094 458.974 59.3585 458.661 59.5827C458.349 59.8069 457.986 59.9065 457.573 59.9065L457.548 59.9314ZM456.86 55.373C456.197 55.8338 455.747 56.195 455.509 56.4939C455.121 56.9672 454.934 57.5775 454.934 58.3123C454.934 58.9849 455.121 59.5951 455.534 60.1307C455.934 60.6662 456.572 60.9278 457.46 60.9278C458.061 60.9278 458.586 60.7908 459.049 60.4794C459.312 60.3051 459.599 60.0186 459.925 59.645L460.725 60.7285H462.026L460.55 58.6735C460.55 58.7731 460.65 58.5365 460.85 57.9885C461.051 57.4031 461.188 56.8178 461.251 56.2075H460.25C460.212 56.5064 460.162 56.743 460.125 56.9174C460.087 57.0918 460.012 57.3658 459.912 57.7394L458.349 55.6221C458.824 55.2609 459.174 54.9371 459.362 54.6631C459.725 54.2023 459.9 53.6667 459.9 53.0315C459.9 52.496 459.737 52.0476 459.387 51.6615C459.049 51.2879 458.586 51.1011 457.998 51.1011C457.373 51.1011 456.872 51.3004 456.497 51.7114C456.134 52.1224 455.947 52.633 455.947 53.2557C455.947 53.5422 456.009 53.866 456.134 54.1898C456.26 54.5136 456.497 54.8997 456.86 55.373Z" fill="#231815"/>
<path d="M466.541 51.0886H468.179L470.619 59.234L473.045 51.0886H474.684V60.7285H473.583V55.0243C473.583 54.8375 473.583 54.5136 473.583 54.0404C473.583 53.592 473.608 53.1063 473.608 52.5832L471.156 60.7285H470.018L467.554 52.5832V52.8821C467.554 53.1187 467.554 53.4799 467.579 53.9656C467.579 54.4514 467.604 54.7877 467.604 55.0243V60.7285H466.516V51.0886H466.541Z" fill="#231815"/>
<path d="M478.225 56.7679L479.589 52.5085L480.902 56.7679H478.225ZM475.773 60.7285H476.962L477.887 57.839H481.24L482.128 60.7285H483.404L480.302 51.0886H479.001L475.773 60.7285Z" fill="#231815"/>
<path d="M489.775 51.0886V52.2469H486.885V60.7285H485.709V52.2469H482.832V51.0886H489.762H489.775Z" fill="#231815"/>
<path d="M490.945 51.0886H497.137V52.2718H492.071V55.1987H496.749V56.3196H492.071V59.5827H497.212V60.7285H490.958V51.0886H490.945Z" fill="#231815"/>
<path d="M500.068 55.4851V52.2095H502.808C503.195 52.2095 503.496 52.2594 503.733 52.4088C504.159 52.6455 504.371 53.1187 504.371 53.7913C504.371 54.4638 504.221 54.8873 503.908 55.1364C503.608 55.373 503.195 55.4851 502.657 55.4851H500.068ZM498.905 60.7285H500.068V56.5936H502.607C503.058 56.5936 503.395 56.6434 503.621 56.7679C503.996 56.9921 504.196 57.4031 504.221 58.0383L504.321 59.6574C504.321 60.0311 504.346 60.2677 504.371 60.4047C504.396 60.5292 504.421 60.6662 504.446 60.7285H505.872V60.5043C505.697 60.4296 505.56 60.2303 505.497 59.919C505.447 59.7321 505.422 59.4706 505.409 59.1094L505.372 57.8141C505.347 57.2412 505.247 56.8427 505.084 56.5936C504.909 56.3445 504.659 56.1452 504.334 55.9833C504.709 55.7716 505.009 55.4602 505.222 55.099C505.422 54.7254 505.522 54.2646 505.522 53.6792C505.522 52.5707 505.134 51.811 504.346 51.4C503.933 51.1758 503.395 51.0886 502.758 51.0886H498.867V60.7285H498.905Z" fill="#231815"/>
<path d="M507.625 51.0886H508.788V60.7285H507.625V51.0886Z" fill="#231815"/>
<path d="M512.41 56.7679L513.774 52.5085L515.087 56.7679H512.41ZM509.946 60.7285H511.134L512.06 57.839H515.413L516.301 60.7285H517.577L514.474 51.0886H513.161L509.934 60.7285H509.946Z" fill="#231815"/>
<path d="M518.629 51.0886H519.805V59.5827H524.07V60.7285H518.641V51.0886H518.629Z" fill="#231815"/>
<path d="M525.997 57.59C525.997 58.1505 526.122 58.5864 526.322 58.9476C526.685 59.5952 527.335 59.9066 528.273 59.9066C528.686 59.9066 529.074 59.8319 529.424 59.6824C530.087 59.4209 530.425 58.9351 530.425 58.2128C530.425 57.7021 530.275 57.316 529.999 57.0794C529.699 56.8552 529.261 56.6684 528.648 56.5065L527.523 56.2325C526.797 56.0332 526.272 55.8339 525.959 55.5973C525.434 55.1987 525.171 54.5885 525.171 53.7789C525.171 52.9195 525.421 52.2096 525.934 51.6492C526.447 51.1012 527.185 50.8022 528.148 50.8022C529.011 50.8022 529.749 51.0638 530.362 51.5495C530.975 52.0477 531.275 52.8074 531.275 53.891H530.187C530.124 53.3679 530.012 52.9818 529.824 52.6829C529.499 52.1972 528.924 51.9356 528.111 51.9356C527.435 51.9356 526.985 52.0975 526.697 52.4338C526.409 52.7452 526.272 53.1313 526.272 53.5423C526.272 54.0405 526.434 54.3767 526.772 54.5885C526.997 54.7379 527.498 54.9123 528.286 55.124L529.449 55.4229C530.012 55.5848 530.45 55.7841 530.75 56.0456C531.275 56.494 531.538 57.1292 531.538 58.001C531.538 59.0721 531.2 59.8443 530.537 60.2927C529.849 60.7535 529.086 60.9901 528.186 60.9901C527.147 60.9901 526.347 60.6788 525.746 60.0685C525.146 59.4582 524.871 58.6113 524.883 57.5776H525.984L525.997 57.59Z" fill="#231815"/>
<path d="M565.855 12.3516C574.41 12.293 580.855 17.918 580.914 25.7109C580.855 33.5039 574.41 39.1289 565.855 39.0703C557.359 39.1289 550.797 33.5039 550.797 25.7109C550.797 17.918 557.359 12.293 565.855 12.3516ZM565.855 19.6172C562.105 19.6172 559.176 21.7852 559.176 25.7109C559.176 29.7539 562.105 31.8047 565.855 31.8047C569.723 31.8047 572.652 29.7539 572.711 25.7109C572.652 21.7852 569.723 19.6172 565.855 19.6172ZM593.98 8.83594V62.7422H585.602V8.83594H593.98ZM548.746 45.2227C558.18 45.2227 571.363 45.1055 582.73 43.5234L583.375 49.6172C571.598 51.9023 559 52.0195 549.684 52.0195L548.746 45.2227ZM615.602 57V14.5781H625.562V48.8555H643.375V57H615.602ZM648.59 57V14.5781H658.551V48.8555H676.363V57H648.59ZM681.578 14.5781H693.941L704.898 41.2969H705.367L716.324 14.5781H728.688V57H718.961V30.6328H718.609L708.297 56.7656H701.969L691.656 30.5156H691.305V57H681.578V14.5781ZM775.387 24.9492V30.3398H795.777V36.9609H746.734V30.3398H766.949V24.9492H775.387ZM775.445 10.1836C775.445 15.5156 780.074 20.6133 793.199 21.7852L790.328 28.2305C780.953 27.1465 774.508 24.041 771.109 19.3828C767.711 24.041 761.295 27.1465 751.891 28.2305L748.961 21.7852C762.145 20.6133 766.832 15.5156 766.832 10.1836V9.36328H775.445V10.1836ZM789.918 39.1875V53.543H760.621V56.0039H791.207V62.332H752.301V47.6836H781.539V45.5156H752.301V39.1875H789.918ZM842.125 10.3594V27H812.828V30.75H843.414V37.3711H804.273V20.6719H833.453V17.0977H804.156V10.3594H842.125ZM847.691 40.9453V47.625H827.242V62.7422H818.746V47.625H798.531V40.9453H847.691ZM871.129 17.918C871.129 25.1836 874.293 32.5664 882.965 35.7305L878.336 42.2344C872.799 40.125 869.078 36.1406 866.91 31.1016C864.596 36.4336 860.611 40.623 854.605 42.8203L850.035 36.2578C859.176 33.0938 862.574 25.5938 862.574 17.918V11.9414H871.129V17.918ZM895.973 8.89453V48.6797H887.594V32.5078H878.98V25.7695H887.594V22.3125H878.98V15.5742H887.594V8.89453H895.973ZM897.086 55.0078V61.7461H859.879V44.9883H868.434V55.0078H897.086Z" fill="url(#paint0_linear_3904_37224)"/>
<defs>
<linearGradient id="paint0_linear_3904_37224" x1="547" y1="36" x2="901" y2="36" gradientUnits="userSpaceOnUse">
<stop stop-color="#111111"/>
<stop offset="0.925" stop-color="#1A68B2"/>
</linearGradient>
</defs>
</svg>
