<svg width="101" height="26" viewBox="0 0 101 26" fill="none" xmlns="http://www.w3.org/2000/svg">
<path d="M36.8281 3.7179H39.5174L45.5096 18.0924L51.5019 3.7179H54.1911V22.2855H50.9802V13.3776L47.2666 22.2855H43.7564L40.0659 13.4007V22.2855H36.8281V3.7179Z" fill="#132B41"/>
<path d="M64.7317 3.7179L71.8864 22.2855H68.4222L66.8264 18.1615H61.4287L62.6602 14.9275H65.5987L63.5272 9.55287L58.6282 22.2855H55.1641L62.3187 3.7179H64.7317Z" fill="#132B41"/>
<path d="M82.5677 3.7179L89.7224 22.2855H86.2582L84.6623 18.1615H79.2646L80.4961 14.9275H83.4347L81.3631 9.55287L76.4642 22.2855H73L80.1547 3.7179H82.5677Z" fill="#132B41"/>
<path d="M94.027 3.71807V19.0248H100.541V22.2818H90.793V3.71423H94.027V3.71807Z" fill="#132B41"/>
<path d="M11.1105 12.6213H2.39952C1.07335 12.6213 0 13.6947 0 15.0209C0 16.347 1.07335 17.4204 2.39952 17.4204H8.711V22.0309C8.711 23.3571 9.78436 24.4304 11.1105 24.4304C12.4367 24.4304 13.51 23.3571 13.51 22.0309V15.0209C13.51 13.6947 12.4367 12.6213 11.1105 12.6213Z" fill="#1A68A7"/>
<path d="M24.2668 7.01005H17.9553V2.39952C17.9553 1.07335 16.8819 0 15.5558 0C14.2296 0 13.1562 1.07335 13.1562 2.39952V9.40957C13.1562 10.7357 14.2296 11.8091 15.5558 11.8091H24.2668C25.5929 11.8091 26.6663 10.7357 26.6663 9.40957C26.6663 8.0834 25.5929 7.01005 24.2668 7.01005Z" fill="#CF3A24"/>
<path d="M27.0011 21.2012H20.6897V18.9902H27.0011C28.3273 18.9902 29.4007 17.9168 29.4007 16.5907C29.4007 15.2645 28.3273 14.1912 27.0011 14.1912H18.2901C16.964 14.1912 15.8906 15.2645 15.8906 16.5907V23.6007C15.8906 24.9269 16.964 26.0002 18.2901 26.0002H27.0011C28.3273 26.0002 29.4007 24.9269 29.4007 23.6007C29.4007 22.2746 28.3273 21.2012 27.0011 21.2012Z" fill="#EA9C00"/>
<path d="M8.36257 10.2413C9.69759 10.2413 10.7798 9.15901 10.7798 7.824C10.7798 6.48898 9.69759 5.40674 8.36257 5.40674C7.02756 5.40674 5.94531 6.48898 5.94531 7.824C5.94531 9.15901 7.02756 10.2413 8.36257 10.2413Z" fill="#719B2F"/>
</svg>
