<svg width="80" height="70" viewBox="0 0 80 70" fill="none" xmlns="http://www.w3.org/2000/svg">
<path d="M29.9129 33.9805H6.46024C2.88979 33.9805 0 36.8703 0 40.4407C0 44.0112 2.88979 46.901 6.46024 46.901H23.4527V59.3139C23.4527 62.8844 26.3425 65.7742 29.9129 65.7742C33.4834 65.7742 36.3732 62.8844 36.3732 59.3139V40.4407C36.3732 36.8703 33.4834 33.9805 29.9129 33.9805Z" fill="#1A68A7"/>
<path d="M65.3368 18.8732H48.3443V6.46024C48.3443 2.88979 45.4545 0 41.8841 0C38.3136 0 35.4238 2.88979 35.4238 6.46024V25.3335C35.4238 28.9039 38.3136 31.7937 41.8841 31.7937H65.3368C68.9072 31.7937 71.797 28.9039 71.797 25.3335C71.797 21.763 68.9072 18.8732 65.3368 18.8732Z" fill="#CF3A24"/>
<path d="M72.6922 57.0802H55.6998V51.1275H72.6922C76.2627 51.1275 79.1525 48.2377 79.1525 44.6673C79.1525 41.0968 76.2627 38.207 72.6922 38.207H49.2395C45.6691 38.207 42.7793 41.0968 42.7793 44.6673V63.5405C42.7793 67.1109 45.6691 70.0007 49.2395 70.0007H72.6922C76.2627 70.0007 79.1525 67.1109 79.1525 63.5405C79.1525 59.97 76.2627 57.0802 72.6922 57.0802Z" fill="#EA9C00"/>
<path d="M22.5158 27.5727C26.1101 27.5727 29.0238 24.6589 29.0238 21.0646C29.0238 17.4704 26.1101 14.5566 22.5158 14.5566C18.9215 14.5566 16.0078 17.4704 16.0078 21.0646C16.0078 24.6589 18.9215 27.5727 22.5158 27.5727Z" fill="#719B2F"/>
</svg>
