<svg width="724" height="72" viewBox="0 0 724 72" fill="none" xmlns="http://www.w3.org/2000/svg">
<path d="M244.064 48.0889C244.064 52.1327 244.049 56.1764 244.078 60.2202C244.078 60.8427 243.907 60.975 243.314 60.9701C240.701 60.9358 238.089 60.9358 235.481 60.9701C234.839 60.9799 234.672 60.8035 234.677 60.1663C234.702 52.4317 234.721 44.6971 234.677 36.9674C234.658 33.8549 233.153 31.5512 230.315 30.2915C227.536 29.0564 224.879 29.4877 222.556 31.463C220.85 32.9138 220.041 34.8156 220.041 37.0605C220.041 44.7118 220.027 52.3631 220.066 60.0192C220.066 60.828 219.845 60.9946 219.081 60.9799C216.522 60.9309 213.968 60.9358 211.41 60.9799C210.733 60.9897 210.621 60.7692 210.621 60.1565C210.635 52.368 210.64 44.5795 210.621 36.7909C210.606 32.6492 207.376 29.3995 203.327 29.3995C199.259 29.3995 196.014 32.6982 196.009 36.8694C196.004 44.4961 196.009 52.118 196.009 59.7448C196.009 60.431 195.656 60.7741 194.95 60.7741C192.392 60.7741 189.833 60.7594 187.28 60.7839C186.76 60.7888 186.588 60.6613 186.593 60.1124C186.613 52.1621 186.539 44.2118 186.623 36.2616C186.721 26.9879 194.715 19.6454 204.151 20.0621C208.312 20.2434 211.89 21.8462 214.909 24.6891C215.365 25.1204 215.601 25.1204 216.056 24.7038C225.526 16.0526 240.662 20.6993 243.647 33.154C243.931 34.3451 244.088 35.5509 244.083 36.7762C244.078 40.5504 244.083 44.3197 244.083 48.0938L244.064 48.0889Z" fill="#659A34"/>
<path d="M293.701 46.2459V47.8585C293.701 51.2209 293.687 54.5883 293.716 57.9507C293.721 58.5095 293.52 58.7496 293.045 58.9751C280.516 64.8324 266.086 57.2596 263.861 43.6481C262.092 32.85 269.566 22.3314 280.379 20.3855C291.795 18.3366 302.367 25.6987 304.421 37.1291C304.602 38.1437 304.676 39.173 304.676 40.2072C304.676 46.7752 304.666 53.3384 304.691 59.9064C304.691 60.5975 304.495 60.7544 303.823 60.7446C301.264 60.7053 298.706 60.6906 296.152 60.7495C295.383 60.7642 295.28 60.5044 295.285 59.8329C295.309 53.4021 295.304 46.9713 295.299 40.5405C295.299 35.5116 291.932 31.1296 287.055 29.7964C281.031 28.1495 274.777 31.8746 273.326 37.9672C271.88 44.0304 275.84 50.221 281.992 51.3484C286.619 52.1963 290.373 50.6425 293.216 46.9076C293.339 46.7458 293.456 46.5743 293.697 46.2459H293.701Z" fill="#444444"/>
<path d="M59.3974 25.1841C59.6915 25.1253 59.8288 24.8704 60.0297 24.6939C64.9655 20.4002 70.6072 19.0915 76.7978 21.2237C82.9492 23.346 86.5959 27.7966 87.8409 34.1882C88.0076 35.0459 88.0468 35.9086 88.0468 36.7811C88.0468 44.4862 88.0468 52.1963 88.0468 59.9015C88.0468 61.1465 88.1938 60.9504 86.9489 60.9553C84.4442 60.9652 81.9444 60.9357 79.4397 60.9749C78.8074 60.9847 78.6849 60.7887 78.6849 60.1956C78.7045 52.5688 78.7045 44.947 78.6947 37.3202C78.6947 33.8696 76.8566 31.1492 73.8226 30.0611C68.9603 28.3161 64.0245 31.9286 64.0098 37.2859C63.9852 44.8588 63.9901 52.4267 64.0245 59.9995C64.0245 60.7691 63.8676 60.9995 63.0589 60.9799C60.5052 60.921 57.9466 60.9357 55.388 60.9749C54.7606 60.9847 54.6331 60.7936 54.6331 60.2005C54.6479 52.3581 54.643 44.5157 54.6331 36.6732C54.6331 36.2419 54.5743 35.8106 54.5449 35.3792C54.8439 31.6688 56.3144 28.4632 58.7896 25.7036C58.9661 25.5027 59.1425 25.2919 59.4072 25.189L59.3974 25.1841Z" fill="#1D64A7"/>
<path d="M113.785 29.4828C108.04 30.3797 104.222 35.1097 104.173 40.4229C104.129 45.246 107.222 49.5006 111.82 51.0347C116.358 52.5493 121.338 50.971 124.235 47.0988C124.397 46.8831 124.554 46.6675 124.725 46.4371C124.956 46.6185 124.843 46.8488 124.843 47.04C124.853 50.6769 124.843 54.3089 124.862 57.9459C124.862 58.4507 124.715 58.7056 124.26 58.9311C112.305 64.8766 97.4679 57.4018 95.1397 44.251C93.1153 32.8207 100.605 22.1942 112.04 20.2777C112.334 20.2287 112.633 20.2336 112.932 20.214C113.167 20.1503 113.398 20.0915 113.618 20.2679C113.564 20.6257 113.246 20.709 113.006 20.861C111.364 21.8854 110.702 23.3853 110.888 25.2675C111.05 26.9095 111.942 28.0564 113.413 28.7818C113.609 28.875 113.824 28.9387 113.981 29.0906C114.295 29.3994 113.961 29.4092 113.785 29.4828Z" fill="#AF2125"/>
<path d="M59.3981 25.1841C59.1285 25.8899 58.4668 26.282 58.0355 26.8702C56.3494 29.1837 55.1975 31.6982 54.8299 34.5509C54.7907 34.845 54.7172 35.1293 54.5407 35.3792C53.5996 31.7619 50.8793 29.4582 47.4629 29.3896C43.326 29.3063 39.9881 32.6295 39.9832 36.8742C39.9685 44.5255 39.9636 52.1767 40.0028 59.828C40.0028 60.6368 39.7822 60.8034 39.0127 60.7838C36.4835 60.7299 33.9543 60.7495 31.4251 60.7789C30.8174 60.7838 30.5821 60.6711 30.587 59.9898C30.6115 52.2846 30.5772 44.5794 30.6115 36.8742C30.6507 28.6348 36.0718 21.9393 44.1446 20.3708C50.0362 19.2287 55.1534 20.9492 59.4079 25.1841H59.3981Z" fill="#0B4E93"/>
<path d="M113.785 29.4827C113.888 29.3602 114.114 29.2916 113.741 29.1543C112.589 28.7279 111.697 27.9927 111.129 26.8702C110.026 24.6988 110.785 21.6697 113.148 20.5521C113.266 20.4982 113.373 20.4247 113.589 20.3022C113.285 20.263 113.109 20.2384 112.932 20.2188C115.412 19.8267 117.863 20.0375 120.275 20.6502C129.509 22.9833 135.813 31.0953 135.813 40.5895C135.813 47.0203 135.803 53.4511 135.827 59.8819C135.827 60.5485 135.685 60.7495 134.989 60.7397C132.46 60.6956 129.931 60.6907 127.397 60.7397C126.632 60.7544 126.392 60.5877 126.397 59.7741C126.436 53.4266 126.416 47.0743 126.416 40.7219C126.416 34.6048 121.995 29.8356 115.888 29.4092C115.192 29.3602 114.481 29.4582 113.78 29.4876L113.785 29.4827Z" fill="#CE3D26"/>
<path d="M159.982 51.5395C162.359 51.7503 164.584 51.3385 166.555 49.9171C169.353 47.9026 170.574 45.1136 170.569 41.7169C170.559 34.8792 170.584 28.0416 170.545 21.204C170.545 20.3904 170.775 20.2286 171.544 20.2433C174.103 20.2923 176.657 20.2727 179.215 20.2531C179.73 20.2531 179.911 20.3708 179.911 20.9246C179.892 28.3602 179.96 35.7958 179.882 43.2314C179.794 51.4807 173.064 59.1712 164.81 60.6318C162.932 60.9651 161.045 61.1269 159.149 60.8083C158.702 60.3965 158.134 60.1662 157.698 59.7201C155.149 57.0929 156.257 52.7404 159.766 51.662C159.845 51.6375 159.913 51.5983 159.982 51.5493V51.5395Z" fill="#ECA215"/>
<path d="M159.982 51.5396C159.952 51.8778 159.639 51.8386 159.438 51.9366C157.467 52.8875 156.418 54.3923 156.556 56.6225C156.678 58.6027 157.776 59.8771 159.565 60.7348C159.393 60.7593 159.271 60.7789 159.148 60.7986C155.188 60.4604 151.757 58.8674 148.831 56.2499C144.615 52.4758 142.547 47.7066 142.542 42.0552C142.532 35.0852 142.552 28.1103 142.522 21.1404C142.522 20.4199 142.699 20.2336 143.419 20.2434C146.003 20.2924 148.586 20.2875 151.169 20.2434C151.84 20.2336 151.973 20.4493 151.968 21.0669C151.948 27.9829 152.061 34.9038 151.914 41.8199C151.821 46.2558 154.806 50.7308 159.982 51.5347V51.5396Z" fill="#E08D14"/>
<path d="M312.768 40.6729C312.768 34.2421 312.782 27.8113 312.748 21.3805C312.748 20.6306 312.969 20.5032 313.655 20.513C316.238 20.5522 318.821 20.5522 321.409 20.513C322.036 20.5032 322.164 20.6894 322.159 21.2825C322.139 34.2519 322.144 47.2213 322.159 60.1907C322.159 60.7593 322.081 60.9799 321.424 60.9701C318.787 60.926 316.145 60.9309 313.508 60.9701C312.885 60.9799 312.753 60.8083 312.753 60.2103C312.777 53.6962 312.768 47.187 312.768 40.6729Z" fill="#444444"/>
<path d="M317.452 1C321.349 1 324.408 4.01933 324.412 7.88663C324.417 11.798 321.344 14.8762 317.442 14.8664C313.59 14.8566 310.512 11.7686 310.512 7.91603C310.512 4.04874 313.565 1.0049 317.447 1H317.452Z" fill="#31A3B7"/>
<path d="M260.395 56.6518C260.395 59.0878 258.507 60.9553 256.047 60.9504C253.591 60.9504 251.714 59.0829 251.709 56.6371C251.699 54.1569 253.606 52.2747 256.106 52.2894C258.542 52.3041 260.399 54.1961 260.399 56.6518H260.395Z" fill="#444444"/>
<path d="M358.27 13.3516C366.824 13.293 373.27 18.918 373.328 26.7109C373.27 34.5039 366.824 40.1289 358.27 40.0703C349.773 40.1289 343.211 34.5039 343.211 26.7109C343.211 18.918 349.773 13.293 358.27 13.3516ZM358.27 20.6172C354.52 20.6172 351.59 22.7852 351.59 26.7109C351.59 30.7539 354.52 32.8047 358.27 32.8047C362.137 32.8047 365.066 30.7539 365.125 26.7109C365.066 22.7852 362.137 20.6172 358.27 20.6172ZM386.395 9.83594V63.7422H378.016V9.83594H386.395ZM341.16 46.2227C350.594 46.2227 363.777 46.1055 375.145 44.5234L375.789 50.6172C364.012 52.9023 351.414 53.0195 342.098 53.0195L341.16 46.2227ZM408.016 58V15.5781H417.977V49.8555H435.789V58H408.016ZM441.004 58V15.5781H450.965V49.8555H468.777V58H441.004ZM473.992 15.5781H486.355L497.312 42.2969H497.781L508.738 15.5781H521.102V58H511.375V31.6328H511.023L500.711 57.7656H494.383L484.07 31.5156H483.719V58H473.992V15.5781ZM567.801 25.9492V31.3398H588.191V37.9609H539.148V31.3398H559.363V25.9492H567.801ZM567.859 11.1836C567.859 16.5156 572.488 21.6133 585.613 22.7852L582.742 29.2305C573.367 28.1465 566.922 25.041 563.523 20.3828C560.125 25.041 553.709 28.1465 544.305 29.2305L541.375 22.7852C554.559 21.6133 559.246 16.5156 559.246 11.1836V10.3633H567.859V11.1836ZM582.332 40.1875V54.543H553.035V57.0039H583.621V63.332H544.715V48.6836H573.953V46.5156H544.715V40.1875H582.332ZM634.539 11.3594V28H605.242V31.75H635.828V38.3711H596.688V21.6719H625.867V18.0977H596.57V11.3594H634.539ZM640.105 41.9453V48.625H619.656V63.7422H611.16V48.625H590.945V41.9453H640.105ZM663.543 18.918C663.543 26.1836 666.707 33.5664 675.379 36.7305L670.75 43.2344C665.213 41.125 661.492 37.1406 659.324 32.1016C657.01 37.4336 653.025 41.623 647.02 43.8203L642.449 37.2578C651.59 34.0938 654.988 26.5938 654.988 18.918V12.9414H663.543V18.918ZM688.387 9.89453V49.6797H680.008V33.5078H671.395V26.7695H680.008V23.3125H671.395V16.5742H680.008V9.89453H688.387ZM689.5 56.0078V62.7461H652.293V45.9883H660.848V56.0078H689.5Z" fill="url(#paint0_linear_2595_3939)"/>
<defs>
<linearGradient id="paint0_linear_2595_3939" x1="339.414" y1="37" x2="693.414" y2="37" gradientUnits="userSpaceOnUse">
<stop stop-color="#111111"/>
<stop offset="0.925" stop-color="#1A68B2"/>
</linearGradient>
</defs>
</svg>
