<svg xmlns="http://www.w3.org/2000/svg" width="30" height="30" viewBox="0 0 30 30">
    <g transform="translate(3 3)">
        <circle data-name="타원 148" cx="15" cy="15" r="15" transform="translate(-3 -3)" style="fill:#4262ff"/>
        <path data-name="사각형 1105" style="fill:none" d="M0 0h24v24H0z"/>
        <path data-name="패스 3945" d="M20 17H4V7h16zm0-12H4a2 2 0 0 0-1.99 2L2 17a2.006 2.006 0 0 0 2 2h16a2.006 2.006 0 0 0 2-2V7a2.006 2.006 0 0 0-2-2m-9 3h2v2h-2zm0 3h2v2h-2zM8 8h2v2H8zm0 3h2v2H8zm-3 0h2v2H5zm0-3h2v2H5zm3 6h8v2H8zm6-3h2v2h-2zm0-3h2v2h-2zm3 3h2v2h-2zm0-3h2v2h-2z" style="fill:#fff"/>
    </g>
</svg>
