<svg xmlns="http://www.w3.org/2000/svg" width="24" height="24" viewBox="0 0 24 24">
    <defs>
        <clipPath id="wyekdbnvsa">
            <path data-name="사각형 40082" style="fill:none" d="M0 0h18v24H0z"/>
        </clipPath>
    </defs>
    <g transform="translate(-61 -23)">
        <g data-name="그룹 74216">
            <g data-name="그룹 74215" style="clip-path:url(#wyekdbnvsa)" transform="translate(65 23)">
                <path data-name="패스 13360" d="M11.571 0H1.286A1.311 1.311 0 0 0 0 1.333v21.334A1.311 1.311 0 0 0 1.286 24h15.428A1.311 1.311 0 0 0 18 22.667v-16z" style="fill:#dee4eb"/>
                <path data-name="패스 13361" d="M15.429 6.667h-5.24A1.212 1.212 0 0 1 9 5.433V0z" transform="translate(2.571)" style="fill:#949ca5"/>
            </g>
        </g>
        <rect data-name="사각형 40083" width="19" height="12" rx="1" transform="translate(62 31)" style="fill:#4262ff"/>
        <path data-name="패스 13374" d="M33 5.735V.079h2.015a3.019 3.019 0 0 1 1.467.337 2.269 2.269 0 0 1 .947.973 3.247 3.247 0 0 1 .329 1.51 3.249 3.249 0 0 1-.331 1.517 2.28 2.28 0 0 1-.953.979 3.044 3.044 0 0 1-1.482.34zm1.945-1.008a1.59 1.59 0 0 0 1.23-.445 1.988 1.988 0 0 0 .411-1.382 1.967 1.967 0 0 0-.409-1.371 1.588 1.588 0 0 0-1.224-.442h-.781v3.64z" transform="translate(31 34.094)" style="fill:#fff"/>
        <path data-name="패스 13375" d="M43.445 4.465a2.424 2.424 0 0 1-.943 1 2.832 2.832 0 0 1-2.713 0 2.422 2.422 0 0 1-.945-1 3.324 3.324 0 0 1-.344-1.559 3.317 3.317 0 0 1 .344-1.558 2.41 2.41 0 0 1 .945-1 2.832 2.832 0 0 1 2.713 0 2.412 2.412 0 0 1 .943 1 3.317 3.317 0 0 1 .344 1.558 3.321 3.321 0 0 1-.344 1.559m-3.572-.545a1.377 1.377 0 0 0 .506.635 1.4 1.4 0 0 0 .769.219 1.377 1.377 0 0 0 .764-.221 1.4 1.4 0 0 0 .5-.635 2.571 2.571 0 0 0 .178-1.012 2.586 2.586 0 0 0-.178-1.013 1.314 1.314 0 0 0-1.268-.854 1.393 1.393 0 0 0-.769.219 1.367 1.367 0 0 0-.506.635 2.586 2.586 0 0 0-.178 1.013 2.588 2.588 0 0 0 .178 1.014" transform="translate(31 34.094)" style="fill:#fff"/>
        <path data-name="패스 13376" d="M48.012 1.312a1.289 1.289 0 0 0-.832-.273 1.332 1.332 0 0 0-1.28.861 2.544 2.544 0 0 0-.18 1.006 2.541 2.541 0 0 0 .18 1.015 1.4 1.4 0 0 0 .507.633 1.381 1.381 0 0 0 .764.219 1.337 1.337 0 0 0 .829-.26 1.1 1.1 0 0 0 .418-.709l1.188.008a2.232 2.232 0 0 1-.379.992 2.268 2.268 0 0 1-.844.733 2.845 2.845 0 0 1-2.58-.071 2.394 2.394 0 0 1-.935-1 3.344 3.344 0 0 1-.34-1.556 3.321 3.321 0 0 1 .342-1.559 2.422 2.422 0 0 1 .939-1A2.653 2.653 0 0 1 47.157 0a2.8 2.8 0 0 1 1.179.242 2.122 2.122 0 0 1 .858.7 2.345 2.345 0 0 1 .408 1.1h-1.188a1.127 1.127 0 0 0-.4-.734" transform="translate(31 34.094)" style="fill:#fff"/>
    </g>
</svg>
