<svg width="20" height="20" viewBox="0 0 20 20" fill="none" xmlns="http://www.w3.org/2000/svg">
<path d="M19.5005 9.60721C19.56 9.654 19.6081 9.71368 19.6412 9.78175C19.6742 9.84983 19.6914 9.92453 19.6914 10.0002C19.6914 10.0759 19.6742 10.1506 19.6412 10.2187C19.6081 10.2867 19.56 10.3464 19.5005 10.3932L13.1735 15.3642C13.0998 15.4222 13.0112 15.4582 12.9179 15.4683C12.8246 15.4783 12.7304 15.4619 12.646 15.4209C12.5617 15.3799 12.4905 15.316 12.4407 15.2365C12.3909 15.1569 12.3645 15.065 12.3645 14.9712V5.02921C12.3645 4.9354 12.3909 4.84348 12.4407 4.76397C12.4905 4.68445 12.5617 4.62055 12.646 4.57956C12.7304 4.53856 12.8246 4.52214 12.9179 4.53216C13.0112 4.54217 13.0998 4.57823 13.1735 4.63621L19.5005 9.60721Z" fill="#1A68B2"/>
<path d="M1 10H18" stroke="#1A68B2" stroke-linecap="round" stroke-dasharray="2 2"/>
</svg>
