<svg width="40" height="40" viewBox="0 0 40 40" fill="none" xmlns="http://www.w3.org/2000/svg">
<path d="M40 20C40 8.9543 31.0457 0 20 0C8.9543 0 0 8.9543 0 20C0 31.0457 8.9543 40 20 40C31.0457 40 40 31.0457 40 20Z" fill="#1A68B2"/>
<path d="M21.06 28.999H21.04C20.9211 28.9982 20.8048 28.9644 20.704 28.9014C20.6032 28.8384 20.5218 28.7486 20.469 28.642L18.248 24.077L22.9 17.099L15.923 21.752L11.357 19.531C11.2821 19.4946 11.215 19.4438 11.1597 19.3815C11.1044 19.3192 11.062 19.2465 11.0348 19.1678C11.0075 19.089 10.9961 19.0057 11.0012 18.9225C11.0062 18.8393 11.0276 18.7579 11.064 18.683C11.1341 18.5419 11.2538 18.4316 11.4 18.373L27.129 12.044C27.2042 12.0145 27.2843 11.9992 27.365 11.999C27.4922 11.9983 27.6165 12.0361 27.7217 12.1075C27.8269 12.1789 27.9079 12.2806 27.9541 12.399C28.0157 12.5521 28.0157 12.723 27.9541 12.876L21.628 28.599C21.5815 28.713 21.5033 28.8113 21.4026 28.8822C21.3019 28.9531 21.1831 28.9936 21.06 28.999Z" fill="white"/>
</svg>
