<svg xmlns="http://www.w3.org/2000/svg" width="20" height="20" viewBox="0 0 20 20">
    <g style="opacity:.5">
        <g data-name="그룹 79133">
            <path data-name="패스 16945" d="M13.243 22.571 12 21.856l2.857-5h4.286a1.429 1.429 0 0 0 1.429-1.429v-8.57a1.429 1.429 0 0 0-1.429-1.429H4.857a1.429 1.429 0 0 0-1.428 1.429v8.571a1.429 1.429 0 0 0 1.429 1.429h6.429v1.429h-6.43A2.857 2.857 0 0 1 2 15.428V6.857A2.857 2.857 0 0 1 4.857 4h14.286A2.857 2.857 0 0 1 22 6.857v8.571a2.857 2.857 0 0 1-2.857 2.857h-3.457z" transform="translate(-2 -2.57)" style="fill:#4262ff"/>
            <path data-name="패스 16946" d="M15.218 9h-1.406v2.812H11v1.406h2.812v2.812h1.406v-2.813h2.812v-1.405h-2.812z" transform="translate(-4.515 -3.962)" style="fill:#4262ff"/>
        </g>
        <path data-name="&lt;Transparent Rectangle&gt;" style="fill:none" d="M0 0h20v20H0z"/>
    </g>
</svg>
