<svg xmlns="http://www.w3.org/2000/svg" width="16" height="16" viewBox="0 0 16 16">
    <defs>
        <clipPath id="icz69ty03a">
            <path data-name="사각형 42913" style="fill:none" d="M0 0h16v16H0z"/>
        </clipPath>
    </defs>
    <g data-name="그룹 79121" style="clip-path:url(#icz69ty03a)">
        <path data-name="패스 16935" d="M14 1H9a1 1 0 0 0-1 1v3a1 1 0 0 0 1 1h1.211l.866 1.5.866-.5-1.154-2H9V2h5v3h-1.5v1H14a1 1 0 0 0 1-1V2a1 1 0 0 0-1-1" style="fill:#949ca5"/>
        <path data-name="패스 16936" d="m7.345 15.5-.866-.5 1.732-3H11a1 1 0 0 0 1-1V8.5h1V11a2 2 0 0 1-2 2H8.788z" style="fill:#949ca5"/>
        <path data-name="패스 16937" d="M5 8a.5.5 0 1 1-.5.5A.5.5 0 0 1 5 8" style="fill:#949ca5"/>
        <path data-name="패스 16938" d="M7 8a.5.5 0 1 1-.5.5A.5.5 0 0 1 7 8" style="fill:#949ca5"/>
        <path data-name="패스 16939" d="M9 8a.5.5 0 1 1-.5.5A.5.5 0 0 1 9 8" style="fill:#949ca5"/>
        <path data-name="패스 16940" d="M6 13H3a2 2 0 0 1-2-2V6a2 2 0 0 1 2-2h4v1H3a1 1 0 0 0-1 1v5a1 1 0 0 0 1 1h3z" style="fill:#949ca5"/>
    </g>
</svg>
