<svg width="20" height="20" viewBox="0 0 20 20" fill="none" xmlns="http://www.w3.org/2000/svg">
<path fill-rule="evenodd" clip-rule="evenodd" d="M20 10C20 15.5228 15.5228 20 10 20C4.47715 20 0 15.5228 0 10C0 4.47715 4.47715 0 10 0C15.5228 0 20 4.47715 20 10ZM10 3.75C10.5178 3.75 10.9375 4.16973 10.9375 4.6875V10.3125C10.9375 10.8303 10.5178 11.25 10 11.25C9.48223 11.25 9.0625 10.8303 9.0625 10.3125V4.6875C9.0625 4.16973 9.48223 3.75 10 3.75ZM10 16.25C10.6904 16.25 11.25 15.6904 11.25 15C11.25 14.3096 10.6904 13.75 10 13.75C9.30964 13.75 8.75 14.3096 8.75 15C8.75 15.6904 9.30964 16.25 10 16.25Z" fill="#444444"/>
</svg>
