<svg width="18" height="18" viewBox="0 0 18 18" fill="none" xmlns="http://www.w3.org/2000/svg">
<path d="M8.11116 4.05228C8.40143 4.01775 8.69794 4 9 4C12.2648 4 14.8799 6.07332 16 9C15.7238 9.72172 15.3567 10.3915 14.9113 10.9912M5.16374 5.08531C3.73568 5.97433 2.63078 7.35185 2 9C3.1201 11.9267 5.73522 14 9 14C10.4263 14 11.7286 13.6043 12.8364 12.9146M7.51514 7.4847C7.13508 7.87249 6.9 8.40823 6.9 9C6.9 10.1835 7.8402 11.1429 9 11.1429C9.57993 11.1429 10.105 10.903 10.485 10.5152" stroke="#7B8188" stroke-width="1.5" stroke-linecap="square" stroke-linejoin="round"/>
<path d="M4.5 4L14.5 14" stroke="#7B8188" stroke-width="1.5" stroke-linecap="square"/>
</svg>
