<svg width="620" height="55" viewBox="0 0 620 55" fill="none" xmlns="http://www.w3.org/2000/svg">
<path d="M0.185547 6.57812H12.5488L23.5059 33.2969H23.9746L34.9316 6.57812H47.2949V49H37.5684V22.6328H37.2168L26.9043 48.7656H20.5762L10.2637 22.5156H9.91211V49H0.185547V6.57812ZM62.5293 49H51.748L66.1621 6.57812H79.4043L93.7598 49H83.0371L80.166 39.918H65.4004L62.5293 49ZM67.8027 32.3008H77.7637L72.959 17.0664H72.6074L67.8027 32.3008ZM123.994 6.57812H134.014V33.9414C134.014 43.4336 126.807 49.5859 116.143 49.5859C105.42 49.5859 98.2715 43.4336 98.2715 33.9414V6.57812H108.232V33.1211C108.232 37.6328 111.455 40.8555 116.143 40.8555C120.83 40.8555 123.994 37.6328 123.994 33.1211V6.57812ZM140.459 6.57812H152.822L163.779 33.2969H164.248L175.205 6.57812H187.568V49H177.842V22.6328H177.49L167.178 48.7656H160.85L150.537 22.5156H150.186V49H140.459V6.57812ZM199.521 49.5859C196.592 49.5859 194.189 47.2422 194.248 44.2539C194.189 41.3828 196.592 39.0391 199.521 39.0391C202.334 39.0391 204.795 41.3828 204.854 44.2539C204.795 47.2422 202.334 49.5859 199.521 49.5859ZM220.322 49H209.541L223.955 6.57812H237.197L251.553 49H240.83L237.959 39.918H223.193L220.322 49ZM225.596 32.3008H235.557L230.752 17.0664H230.4L225.596 32.3008ZM266.025 6.57812V49H256.064V6.57812H266.025ZM287.998 4.35156C296.553 4.29297 302.998 9.91797 303.057 17.7109C302.998 25.5039 296.553 31.1289 287.998 31.0703C279.502 31.1289 272.939 25.5039 272.939 17.7109C272.939 9.91797 279.502 4.29297 287.998 4.35156ZM287.998 11.6172C284.248 11.6172 281.318 13.7852 281.318 17.7109C281.318 21.7539 284.248 23.8047 287.998 23.8047C291.865 23.8047 294.795 21.7539 294.854 17.7109C294.795 13.7852 291.865 11.6172 287.998 11.6172ZM316.123 0.835938V54.7422H307.744V0.835938H316.123ZM270.889 37.2227C280.322 37.2227 293.506 37.1055 304.873 35.5234L305.518 41.6172C293.74 43.9023 281.143 44.0195 271.826 44.0195L270.889 37.2227ZM337.744 49V6.57812H347.705V40.8555H365.518V49H337.744ZM370.732 49V6.57812H380.693V40.8555H398.506V49H370.732ZM403.721 6.57812H416.084L427.041 33.2969H427.51L438.467 6.57812H450.83V49H441.104V22.6328H440.752L430.439 48.7656H424.111L413.799 22.5156H413.447V49H403.721V6.57812ZM497.529 16.9492V22.3398H517.92V28.9609H468.877V22.3398H489.092V16.9492H497.529ZM497.588 2.18359C497.588 7.51562 502.217 12.6133 515.342 13.7852L512.471 20.2305C503.096 19.1465 496.65 16.041 493.252 11.3828C489.854 16.041 483.438 19.1465 474.033 20.2305L471.104 13.7852C484.287 12.6133 488.975 7.51562 488.975 2.18359V1.36328H497.588V2.18359ZM512.061 31.1875V45.543H482.764V48.0039H513.35V54.332H474.443V39.6836H503.682V37.5156H474.443V31.1875H512.061ZM564.268 2.35938V19H534.971V22.75H565.557V29.3711H526.416V12.6719H555.596V9.09766H526.299V2.35938H564.268ZM569.834 32.9453V39.625H549.385V54.7422H540.889V39.625H520.674V32.9453H569.834ZM593.271 9.91797C593.271 17.1836 596.436 24.5664 605.107 27.7305L600.479 34.2344C594.941 32.125 591.221 28.1406 589.053 23.1016C586.738 28.4336 582.754 32.623 576.748 34.8203L572.178 28.2578C581.318 25.0938 584.717 17.5938 584.717 9.91797V3.94141H593.271V9.91797ZM618.115 0.894531V40.6797H609.736V24.5078H601.123V17.7695H609.736V14.3125H601.123V7.57422H609.736V0.894531H618.115ZM619.229 47.0078V53.7461H582.021V36.9883H590.576V47.0078H619.229Z" fill="url(#paint0_linear_2352_6933)"/>
<defs>
<linearGradient id="paint0_linear_2352_6933" x1="-205" y1="28" x2="825" y2="28" gradientUnits="userSpaceOnUse">
<stop stop-color="#111111"/>
<stop offset="0.8" stop-color="#1A68B2"/>
</linearGradient>
</defs>
</svg>
