<svg width="804" height="72" viewBox="0 0 804 72" fill="none" xmlns="http://www.w3.org/2000/svg">
<path d="M243.563 48.0889C243.563 52.1327 243.548 56.1764 243.577 60.2202C243.577 60.8427 243.406 60.975 242.813 60.9701C240.2 60.9358 237.588 60.9358 234.98 60.9701C234.338 60.9799 234.171 60.8035 234.176 60.1663C234.201 52.4317 234.22 44.6971 234.176 36.9674C234.157 33.8549 232.652 31.5512 229.814 30.2915C227.035 29.0564 224.378 29.4877 222.055 31.463C220.349 32.9138 219.54 34.8156 219.54 37.0605C219.54 44.7118 219.526 52.3631 219.565 60.0192C219.565 60.828 219.344 60.9946 218.58 60.9799C216.021 60.9309 213.467 60.9358 210.909 60.9799C210.232 60.9897 210.12 60.7692 210.12 60.1565C210.134 52.368 210.139 44.5795 210.12 36.7909C210.105 32.6492 206.875 29.3995 202.826 29.3995C198.758 29.3995 195.513 32.6982 195.508 36.8694C195.503 44.4961 195.508 52.118 195.508 59.7448C195.508 60.431 195.155 60.7741 194.45 60.7741C191.891 60.7741 189.332 60.7594 186.779 60.7839C186.259 60.7888 186.088 60.6613 186.092 60.1124C186.112 52.1621 186.038 44.2118 186.122 36.2616C186.22 26.9879 194.214 19.6454 203.65 20.0621C207.811 20.2434 211.389 21.8462 214.408 24.6891C214.864 25.1204 215.1 25.1204 215.555 24.7038C225.025 16.0526 240.161 20.6993 243.146 33.154C243.43 34.3451 243.587 35.5509 243.582 36.7762C243.577 40.5504 243.582 44.3197 243.582 48.0938L243.563 48.0889Z" fill="#659A34"/>
<path d="M293.2 46.2459V47.8585C293.2 51.2209 293.186 54.5883 293.215 57.9507C293.22 58.5095 293.019 58.7496 292.544 58.9751C280.015 64.8324 265.585 57.2596 263.36 43.6481C261.591 32.85 269.065 22.3314 279.878 20.3855C291.294 18.3366 301.866 25.6987 303.92 37.1291C304.101 38.1437 304.175 39.173 304.175 40.2072C304.175 46.7752 304.165 53.3384 304.19 59.9064C304.19 60.5975 303.994 60.7544 303.322 60.7446C300.763 60.7053 298.205 60.6906 295.651 60.7495C294.882 60.7642 294.779 60.5044 294.784 59.8329C294.808 53.4021 294.803 46.9713 294.798 40.5405C294.798 35.5116 291.431 31.1296 286.554 29.7964C280.53 28.1495 274.276 31.8746 272.825 37.9672C271.379 44.0304 275.339 50.221 281.491 51.3484C286.118 52.1963 289.872 50.6425 292.715 46.9076C292.838 46.7458 292.955 46.5743 293.196 46.2459H293.2Z" fill="#444444"/>
<path d="M58.8974 25.1841C59.1915 25.1253 59.3288 24.8704 59.5297 24.6939C64.4655 20.4002 70.1072 19.0915 76.2978 21.2237C82.4492 23.346 86.0959 27.7966 87.3409 34.1882C87.5076 35.0459 87.5468 35.9086 87.5468 36.7811C87.5468 44.4862 87.5468 52.1963 87.5468 59.9015C87.5468 61.1465 87.6938 60.9504 86.4489 60.9553C83.9442 60.9652 81.4444 60.9357 78.9397 60.9749C78.3074 60.9847 78.1849 60.7887 78.1849 60.1956C78.2045 52.5688 78.2045 44.947 78.1947 37.3202C78.1947 33.8696 76.3566 31.1492 73.3226 30.0611C68.4603 28.3161 63.5245 31.9286 63.5098 37.2859C63.4852 44.8588 63.4901 52.4267 63.5245 59.9995C63.5245 60.7691 63.3676 60.9995 62.5589 60.9799C60.0052 60.921 57.4466 60.9357 54.888 60.9749C54.2606 60.9847 54.1331 60.7936 54.1331 60.2005C54.1479 52.3581 54.143 44.5157 54.1331 36.6732C54.1331 36.2419 54.0743 35.8106 54.0449 35.3792C54.3439 31.6688 55.8144 28.4632 58.2896 25.7036C58.4661 25.5027 58.6425 25.2919 58.9072 25.189L58.8974 25.1841Z" fill="#1D64A7"/>
<path d="M113.285 29.4828C107.54 30.3797 103.722 35.1097 103.673 40.4229C103.629 45.246 106.722 49.5006 111.32 51.0347C115.858 52.5493 120.838 50.971 123.735 47.0988C123.897 46.8831 124.054 46.6675 124.225 46.4371C124.456 46.6185 124.343 46.8488 124.343 47.04C124.353 50.6769 124.343 54.3089 124.362 57.9459C124.362 58.4507 124.215 58.7056 123.76 58.9311C111.805 64.8766 96.9679 57.4018 94.6397 44.251C92.6153 32.8207 100.105 22.1942 111.54 20.2777C111.834 20.2287 112.133 20.2336 112.432 20.214C112.667 20.1503 112.898 20.0915 113.118 20.2679C113.064 20.6257 112.746 20.709 112.506 20.861C110.864 21.8854 110.202 23.3853 110.388 25.2675C110.55 26.9095 111.442 28.0564 112.913 28.7818C113.109 28.875 113.324 28.9387 113.481 29.0906C113.795 29.3994 113.461 29.4092 113.285 29.4828Z" fill="#AF2125"/>
<path d="M58.8981 25.184C58.6285 25.8898 57.9668 26.2819 57.5355 26.8701C55.8494 29.1836 54.6975 31.6981 54.3299 34.5508C54.2907 34.8449 54.2172 35.1291 54.0407 35.3791C53.0996 31.7618 50.3793 29.4581 46.9629 29.3895C42.826 29.3062 39.4881 32.6294 39.4832 36.8741C39.4685 44.5254 39.4636 52.1766 39.5028 59.8279C39.5028 60.6366 39.2822 60.8033 38.5127 60.7837C35.9835 60.7298 33.4543 60.7494 30.9251 60.7788C30.3174 60.7837 30.0821 60.671 30.087 59.9896C30.1115 52.2845 30.0772 44.5793 30.1115 36.8741C30.1507 28.6346 35.5718 21.9392 43.6446 20.3707C49.5362 19.2286 54.6534 20.9491 58.9079 25.184H58.8981Z" fill="#0B4E93"/>
<path d="M113.285 29.4827C113.388 29.3602 113.614 29.2916 113.241 29.1543C112.089 28.7279 111.197 27.9927 110.629 26.8702C109.526 24.6988 110.285 21.6697 112.648 20.5521C112.766 20.4982 112.873 20.4247 113.089 20.3022C112.785 20.263 112.609 20.2384 112.432 20.2188C114.912 19.8267 117.363 20.0375 119.775 20.6502C129.009 22.9833 135.313 31.0953 135.313 40.5895C135.313 47.0203 135.303 53.4511 135.327 59.8819C135.327 60.5485 135.185 60.7495 134.489 60.7397C131.96 60.6956 129.431 60.6907 126.897 60.7397C126.132 60.7544 125.892 60.5877 125.897 59.7741C125.936 53.4266 125.916 47.0743 125.916 40.7219C125.916 34.6048 121.495 29.8356 115.388 29.4092C114.692 29.3602 113.981 29.4582 113.28 29.4876L113.285 29.4827Z" fill="#CE3D26"/>
<path d="M159.483 51.5395C161.86 51.7503 164.085 51.3385 166.056 49.9171C168.854 47.9026 170.075 45.1136 170.07 41.7169C170.06 34.8792 170.085 28.0416 170.046 21.204C170.046 20.3904 170.276 20.2286 171.045 20.2433C173.604 20.2923 176.158 20.2727 178.716 20.2531C179.231 20.2531 179.412 20.3708 179.412 20.9246C179.393 28.3602 179.461 35.7958 179.383 43.2314C179.295 51.4807 172.565 59.1712 164.311 60.6318C162.433 60.9651 160.546 61.1269 158.649 60.8083C158.203 60.3965 157.635 60.1662 157.199 59.7201C154.65 57.0929 155.758 52.7404 159.267 51.662C159.346 51.6375 159.414 51.5983 159.483 51.5493V51.5395Z" fill="#ECA215"/>
<path d="M159.482 51.5395C159.452 51.8777 159.139 51.8385 158.938 51.9365C156.967 52.8874 155.918 54.3922 156.056 56.6223C156.178 58.6026 157.276 59.8769 159.065 60.7347C158.893 60.7592 158.771 60.7788 158.648 60.7984C154.688 60.4602 151.257 58.8672 148.331 56.2498C144.115 52.4757 142.047 47.7065 142.042 42.055C142.032 35.0851 142.052 28.1102 142.022 21.1403C142.022 20.4197 142.199 20.2335 142.919 20.2433C145.503 20.2923 148.086 20.2874 150.669 20.2433C151.34 20.2335 151.473 20.4491 151.468 21.0667C151.448 27.9828 151.561 34.9037 151.414 41.8198C151.321 46.2556 154.306 50.7307 159.482 51.5346V51.5395Z" fill="#E08D14"/>
<path d="M312.268 40.6729C312.268 34.2421 312.282 27.8113 312.248 21.3805C312.248 20.6306 312.469 20.5032 313.155 20.513C315.738 20.5522 318.321 20.5522 320.909 20.513C321.536 20.5032 321.664 20.6894 321.659 21.2825C321.639 34.2519 321.644 47.2213 321.659 60.1907C321.659 60.7593 321.581 60.9799 320.924 60.9701C318.287 60.926 315.645 60.9309 313.008 60.9701C312.385 60.9799 312.253 60.8083 312.253 60.2103C312.277 53.6962 312.268 47.187 312.268 40.6729Z" fill="#444444"/>
<path d="M316.953 1C320.85 1 323.908 4.01933 323.913 7.88663C323.918 11.798 320.845 14.8762 316.943 14.8664C313.091 14.8566 310.013 11.7686 310.013 7.91603C310.013 4.04874 313.066 1.0049 316.948 1H316.953Z" fill="#31A3B7"/>
<path d="M259.895 56.6518C259.895 59.0878 258.007 60.9553 255.547 60.9504C253.091 60.9504 251.214 59.0829 251.209 56.6371C251.199 54.1569 253.106 52.2747 255.606 52.2894C258.042 52.3041 259.899 54.1961 259.899 56.6518H259.895Z" fill="#444444"/>
<path d="M341.287 32.5117L346.502 15.5781H353.357L350.545 32.5117H341.287ZM377.146 36.0273C376.854 33.918 374.979 32.5703 372.342 32.5703C369.881 32.5703 367.947 33.6836 368.006 35.3242C367.947 36.5547 368.885 37.5508 371.639 38.0781L377.674 39.25C384.002 40.4805 387.049 43.2344 387.107 47.8633C387.049 54.3672 381.072 58.5859 372.459 58.5859C363.377 58.5859 358.045 54.543 357.4 48.2148H367.244C367.596 50.5 369.588 51.7305 372.518 51.7305C375.213 51.7305 377.029 50.6758 377.088 48.918C377.029 47.5117 375.799 46.6328 373.045 46.0469L367.596 45.0508C361.326 43.8789 358.162 40.7148 358.221 35.8516C358.162 29.5234 363.553 25.7734 372.166 25.7734C380.721 25.7734 385.936 29.6992 386.346 36.0273H377.146ZM405.447 58V15.5781H415.408V49.8555H433.221V58H405.447ZM438.436 58V15.5781H448.396V49.8555H466.209V58H438.436ZM471.424 15.5781H483.787L494.744 42.2969H495.213L506.17 15.5781H518.533V58H508.807V31.6328H508.455L498.143 57.7656H491.814L481.502 31.5156H481.15V58H471.424V15.5781ZM561.307 28.1758C561.072 25.0703 558.787 23.2539 554.686 23.2539C550.643 23.2539 548.592 25.0117 548.533 27.4141C548.475 30.0508 551.053 31.3398 554.861 32.1602L558.553 33.0391C566.697 34.8555 571.443 38.8984 571.502 45.6953C571.443 53.7227 565.232 58.5859 554.686 58.5859C544.139 58.5859 537.283 53.7812 537.107 44.0547H546.717C546.951 48.1562 549.998 50.2656 554.568 50.2656C558.787 50.2656 561.307 48.3906 561.365 45.6953C561.307 43.2344 559.139 41.9453 554.451 40.8906L549.998 39.8359C542.674 38.1367 538.221 34.5039 538.221 28.1172C538.162 20.2656 545.135 14.9922 554.744 14.9922C564.529 14.9922 570.799 20.3242 570.916 28.1758H561.307ZM591.365 58.5859C581.404 58.5859 575.369 51.9648 575.369 42.1797C575.369 32.3945 581.404 25.7734 591.365 25.7734C601.326 25.7734 607.361 32.3945 607.361 42.1797C607.361 51.9648 601.326 58.5859 591.365 58.5859ZM591.424 51.1445C595.174 51.1445 597.283 47.4531 597.283 42.1211C597.283 36.7891 595.174 33.0977 591.424 33.0977C587.557 33.0977 585.447 36.7891 585.447 42.1211C585.447 47.4531 587.557 51.1445 591.424 51.1445ZM622.361 15.5781V58H612.459V15.5781H622.361ZM649.197 44.2891V26.1836H659.041V58H649.666V52.1406H649.314C647.908 55.9492 644.393 58.4102 639.588 58.4102C633.084 58.4102 628.689 53.7227 628.689 46.457V26.1836H638.592V44.582C638.592 48.0391 640.525 50.207 643.689 50.207C646.736 50.207 649.197 48.0977 649.197 44.2891ZM683.182 26.1836V33.4492H677.381V48.0391C677.381 50.0312 678.377 50.6172 680.076 50.6758C680.896 50.7344 682.479 50.6172 683.592 50.5586V58.1172C682.654 58.2344 681.014 58.4688 678.67 58.4688C671.697 58.4688 667.479 55.5977 667.537 49.1523V33.4492H663.26V26.1836H667.537V18.5664H677.381V26.1836H683.182ZM688.279 58V26.1836H698.182V58H688.279ZM693.26 22.375C690.447 22.375 688.162 20.2656 688.162 17.6289C688.162 14.9922 690.447 12.8828 693.26 12.8828C696.072 12.8828 698.416 14.9922 698.416 17.6289C698.416 20.2656 696.072 22.375 693.26 22.375ZM719.275 58.5859C709.314 58.5859 703.279 51.9648 703.279 42.1797C703.279 32.3945 709.314 25.7734 719.275 25.7734C729.236 25.7734 735.271 32.3945 735.271 42.1797C735.271 51.9648 729.236 58.5859 719.275 58.5859ZM719.334 51.1445C723.084 51.1445 725.193 47.4531 725.193 42.1211C725.193 36.7891 723.084 33.0977 719.334 33.0977C715.467 33.0977 713.357 36.7891 713.357 42.1211C713.357 47.4531 715.467 51.1445 719.334 51.1445ZM750.271 39.7773V58H740.369V26.1836H749.744V31.9844H750.096C751.561 28.1172 755.076 25.7734 759.764 25.7734C766.443 25.7734 770.838 30.5195 770.779 37.7266V58H760.936V39.6016C760.936 36.0273 759.002 33.8594 755.721 33.8594C752.439 33.8594 750.271 36.0859 750.271 39.7773Z" fill="url(#paint0_linear_3540_40100)"/>
<defs>
<linearGradient id="paint0_linear_3540_40100" x1="338.914" y1="37" x2="773.914" y2="37" gradientUnits="userSpaceOnUse">
<stop stop-color="#111111"/>
<stop offset="0.925" stop-color="#1A68B2"/>
</linearGradient>
</defs>
</svg>
